<?xml version="1.0" standalone="no"?>
<!DOCTYPE svg PUBLIC "-//W3C//DTD SVG 20010904//EN"
 "http://www.w3.org/TR/2001/REC-SVG-20010904/DTD/svg10.dtd">
<svg version="1.0" xmlns="http://www.w3.org/2000/svg"
 width="576.000000pt" height="1280.000000pt" viewBox="0 0 576.000000 1280.000000"
 preserveAspectRatio="xMidYMid meet">

<g transform="translate(0.000000,1280.000000) scale(0.100000,-0.100000)"
fill="#000000" stroke="none">
<path d="M5715 11590 c-3 -5 -18 -10 -32 -10 -13 0 -37 -6 -51 -14 -15 -7 -39
-19 -53 -26 -23 -11 -28 -20 -33 -74 -13 -109 -21 -117 -27 -26 -5 78 -6 74
-5 -35 1 -68 5 -123 11 -127 6 -5 5 -8 -2 -8 -7 0 -13 -11 -13 -24 0 -23 2
-24 31 -14 32 11 51 39 31 46 -15 5 -16 39 -2 44 6 2 13 40 17 86 7 93 17 115
51 106 21 -6 21 -7 5 -20 -15 -11 -15 -15 -4 -23 9 -6 10 -11 2 -15 -16 -11
-13 -26 4 -20 17 7 21 -11 5 -21 -5 -3 -10 -15 -10 -26 0 -10 -5 -19 -11 -19
-8 0 -8 -4 0 -14 9 -11 9 -20 2 -35 -6 -11 -11 -31 -11 -45 0 -19 4 -24 16
-19 11 4 15 2 12 -7 -4 -12 -44 -27 -120 -44 l-28 -6 1 -163 c1 -102 4 -149 9
-127 5 22 7 -7 7 -83 -1 -64 1 -118 5 -120 11 -3 19 -387 8 -387 -4 0 -11 -37
-14 -82 -13 -155 -17 -203 -22 -207 -2 -2 -5 18 -5 45 -5 145 -19 -151 -28
-596 -20 -937 -32 -1416 -41 -1745 -5 -181 -10 -410 -10 -507 l0 -178 38 0
c20 -1 54 -3 75 -6 l38 -6 0 289 c0 158 2 304 4 323 2 19 10 198 16 397 7 199
16 367 19 373 9 14 73 29 123 30 l37 0 0 1575 c0 1552 0 1575 -19 1575 -11 0
-23 -4 -26 -10z m-5 -40 c0 -5 -7 -10 -15 -10 -8 0 -15 5 -15 10 0 6 7 10 15
10 8 0 15 -4 15 -10z m-3 -106 c-3 -3 -12 -4 -19 -1 -8 3 -5 6 6 6 11 1 17 -2
13 -5z m0 -71 c-3 -10 -5 -4 -5 12 0 17 2 24 5 18 2 -7 2 -21 0 -30z m-167
-73 c0 -5 -2 -10 -4 -10 -3 0 -8 5 -11 10 -3 6 -1 10 4 10 6 0 11 -4 11 -10z
m192 -72 c-9 -9 -12 -7 -12 12 0 19 3 21 12 12 9 -9 9 -15 0 -24z m-92 -31 c0
-17 -69 -87 -86 -87 -21 0 26 72 57 87 30 16 29 16 29 0z m-123 -139 c-3 -7
-5 -2 -5 12 0 14 2 19 5 13 2 -7 2 -19 0 -25z m123 -33 c21 7 33 -7 24 -29 -5
-12 -11 -13 -24 -6 -13 7 -21 7 -25 0 -9 -15 -55 -12 -55 4 0 8 7 16 15 20 8
3 15 13 15 21 0 15 1 15 16 0 9 -9 24 -13 34 -10z m-123 -57 c-3 -8 -6 -5 -6
6 -1 11 2 17 5 13 3 -3 4 -12 1 -19z m95 -493 l-9 -210 -1 180 c-1 99 1 245 6
325 l7 145 3 -115 c1 -63 -2 -209 -6 -325z m-25 283 c-2 -24 -4 -5 -4 42 0 47
2 66 4 43 2 -24 2 -62 0 -85z m70 45 c-2 -16 -4 -3 -4 27 0 30 2 43 4 28 2
-16 2 -40 0 -55z m2 -210 c-1 -98 -4 -165 -8 -149 -7 31 -3 326 5 326 2 0 3
-80 3 -177z m-86 -319 c-4 -110 -10 -181 -11 -159 -5 49 9 368 15 362 2 -3 0
-94 -4 -203z m74 64 c-2 -13 -4 -3 -4 22 0 25 2 35 4 23 2 -13 2 -33 0 -45z
m13 -79 c0 -10 -4 -19 -10 -19 -5 0 -10 12 -10 26 0 14 4 23 10 19 6 -3 10
-15 10 -26z m-1 -101 l-1 -63 -10 49 c-8 46 -6 76 7 76 3 0 4 -28 4 -62z m-12
-125 c-3 -10 -5 -2 -5 17 0 19 2 27 5 18 2 -10 2 -26 0 -35z m-150 -65 c-3 -7
-5 -2 -5 12 0 14 2 19 5 13 2 -7 2 -19 0 -25z m153 4 c0 -15 -2 -15 -10 -2
-13 20 -13 33 0 25 6 -3 10 -14 10 -23z m-140 -37 c0 14 77 18 86 4 4 -8 9 -7
15 2 8 12 11 12 18 -1 17 -26 7 -31 -66 -30 -60 1 -73 5 -73 25 0 17 2 17 10
5 5 -8 10 -10 10 -5z m-23 -299 c-1 -26 -6 -41 -11 -36 -8 8 0 80 9 80 2 0 3
-20 2 -44z m57 -867 c-10 -16 -24 -9 -24 12 0 18 2 19 15 9 8 -7 12 -16 9 -21z
m-54 11 c0 -5 -5 -10 -11 -10 -5 0 -7 5 -4 10 3 6 8 10 11 10 2 0 4 -4 4 -10z
m101 -13 c-13 -13 -26 -3 -16 12 3 6 11 8 17 5 6 -4 6 -10 -1 -17z"/>
<path d="M5595 11340 c3 -5 8 -10 11 -10 2 0 4 5 4 10 0 6 -5 10 -11 10 -5 0
-7 -4 -4 -10z"/>
<path d="M3497 11283 c-4 -3 -7 -24 -7 -45 0 -28 4 -38 13 -35 6 2 11 11 11
20 -1 9 2 14 7 11 5 -3 9 9 9 25 0 29 -17 41 -33 24z"/>
<path d="M3452 11263 c-6 -2 -9 -10 -6 -15 4 -7 2 -8 -5 -4 -6 4 -56 -14 -111
-41 -99 -48 -99 -48 -100 -85 0 -21 5 -38 10 -38 6 0 10 9 10 20 0 22 16 27
22 8 3 -8 10 -3 18 12 7 14 19 29 27 33 7 5 11 12 8 18 -4 5 3 9 14 9 31 0 51
11 52 29 0 9 3 11 5 4 8 -19 74 16 74 39 0 10 -1 18 -2 17 -2 0 -9 -3 -16 -6z"/>
<path d="M3495 10900 c4 -135 8 -246 9 -248 2 -1 11 1 21 4 16 7 17 19 9 173
-5 91 -9 201 -9 243 1 69 -1 76 -18 75 -19 -1 -19 -9 -12 -247z"/>
<path d="M3185 11105 c-20 -38 -36 -47 -28 -15 3 11 9 20 14 20 5 0 9 4 9 10
0 16 -29 -1 -35 -21 -4 -10 -13 -19 -21 -19 -8 0 -13 -4 -9 -9 3 -5 -8 -9 -24
-9 -17 1 -36 -4 -43 -9 -20 -15 -57 -24 -123 -29 -88 -7 -175 -41 -175 -68 0
-19 107 -34 208 -30 85 3 92 2 92 -16 0 -10 -6 -22 -12 -26 -10 -6 152 -53
185 -54 5 0 7 22 6 50 -2 41 2 57 29 99 41 63 41 75 0 68 -18 -3 -49 -8 -68
-11 l-35 -5 27 14 c28 15 39 38 35 67 -5 30 -12 28 -32 -7z m-95 -130 c-7 -8
-17 -15 -23 -15 -5 0 -2 9 8 20 21 23 35 19 15 -5z m81 -8 c-10 -9 -11 -8 -5
6 3 10 9 15 12 12 3 -3 0 -11 -7 -18z m-191 4 c0 -15 -11 -19 -75 -25 -33 -3
-52 -3 -42 0 10 3 30 12 45 20 31 16 72 19 72 5z"/>
<path d="M4915 10980 c-8 -26 -1 -35 20 -26 18 7 17 37 -2 43 -6 2 -14 -5 -18
-17z"/>
<path d="M1683 10983 c9 -2 23 -2 30 0 6 3 -1 5 -18 5 -16 0 -22 -2 -12 -5z"/>
<path d="M1788 10973 c6 -2 18 -2 25 0 6 3 1 5 -13 5 -14 0 -19 -2 -12 -5z"/>
<path d="M2088 10973 c7 -3 16 -2 19 1 4 3 -2 6 -13 5 -11 0 -14 -3 -6 -6z"/>
<path d="M4747 10974 c-13 -13 -7 -44 8 -44 8 0 15 7 15 15 0 8 0 18 1 22 1
10 -16 15 -24 7z"/>
<path d="M488 10963 c6 -2 18 -2 25 0 6 3 1 5 -13 5 -14 0 -19 -2 -12 -5z"/>
<path d="M683 10963 c9 -2 25 -2 35 0 9 3 1 5 -18 5 -19 0 -27 -2 -17 -5z"/>
<path d="M818 10953 c6 -2 12 -11 12 -19 0 -8 5 -14 10 -14 6 0 10 7 10 15 0
13 13 15 73 13 66 -3 72 -5 75 -25 5 -31 32 -30 32 1 0 20 4 23 23 19 18 -4
19 -3 7 6 -9 6 -65 10 -135 10 -66 0 -114 -3 -107 -6z"/>
<path d="M1088 10949 c-7 -5 42 -8 112 -8 69 0 121 2 115 4 -24 8 -215 11
-227 4z"/>
<path d="M2008 10953 c6 -2 18 -2 25 0 6 3 1 5 -13 5 -14 0 -19 -2 -12 -5z"/>
<path d="M4563 10944 c-8 -22 15 -43 27 -24 5 8 10 21 10 28 0 17 -30 15 -37
-4z"/>
<path d="M1358 10933 c18 -2 45 -2 60 0 15 2 0 4 -33 4 -33 0 -45 -2 -27 -4z"/>
<path d="M2153 10933 c9 -2 25 -2 35 0 9 3 1 5 -18 5 -19 0 -27 -2 -17 -5z"/>
<path d="M1615 10915 c77 -7 160 -13 185 -13 l45 0 -50 8 c-27 4 -111 10 -185
13 l-135 5 140 -13z"/>
<path d="M1170 10913 c0 -5 5 -15 10 -23 7 -11 12 -12 21 -3 6 6 8 16 5 22 -8
12 -36 15 -36 4z"/>
<path d="M2328 10913 c7 -3 16 -2 19 1 4 3 -2 6 -13 5 -11 0 -14 -3 -6 -6z"/>
<path d="M2383 10903 c9 -2 23 -2 30 0 6 3 -1 5 -18 5 -16 0 -22 -2 -12 -5z"/>
<path d="M3902 10897 c-13 -15 1 -42 17 -33 13 9 15 33 2 40 -5 3 -13 0 -19
-7z"/>
<path d="M1880 10890 c27 -9 147 -13 138 -5 -3 3 -41 7 -84 10 -50 2 -70 1
-54 -5z"/>
<path d="M2508 10883 c6 -2 18 -2 25 0 6 3 1 5 -13 5 -14 0 -19 -2 -12 -5z"/>
<path d="M3730 10870 c0 -11 7 -20 15 -20 8 0 15 9 15 20 0 11 -7 20 -15 20
-8 0 -15 -9 -15 -20z"/>
<path d="M2032 10855 c4 -33 22 -37 26 -6 4 22 6 23 59 16 70 -9 83 -14 83
-31 0 -8 7 -14 15 -14 8 0 15 5 15 10 0 6 10 15 23 19 20 8 20 9 -8 9 -16 0
-50 5 -75 11 -25 6 -67 11 -93 11 -46 0 -48 -1 -45 -25z"/>
<path d="M1860 10850 c0 -11 7 -20 15 -20 8 0 15 9 15 20 0 11 -7 20 -15 20
-8 0 -15 -9 -15 -20z"/>
<path d="M2351 10836 c98 -18 206 -30 199 -23 -6 6 -134 24 -225 32 -32 3 -23
0 26 -9z"/>
<path d="M2650 10790 c8 -5 24 -9 35 -9 l20 0 -20 9 c-11 5 -27 9 -35 9 -13 1
-13 0 0 -9z"/>
<path d="M5492 10740 c0 -14 2 -19 5 -12 2 6 2 18 0 25 -3 6 -5 1 -5 -13z"/>
<path d="M3360 10740 c0 -5 5 -10 11 -10 5 0 7 5 4 10 -3 6 -8 10 -11 10 -2 0
-4 -4 -4 -10z"/>
<path d="M2820 10720 c0 -6 7 -10 15 -10 8 0 15 2 15 4 0 2 -7 6 -15 10 -8 3
-15 1 -15 -4z"/>
<path d="M3270 10700 c0 -7 9 -14 20 -17 11 -3 18 -9 15 -13 -3 -5 8 -11 23
-15 26 -5 29 -10 31 -52 3 -56 1 -54 44 -76 33 -18 35 -18 84 4 46 20 52 26
56 58 5 45 1 54 -23 41 -11 -6 -20 -24 -23 -43 l-4 -32 -1 33 c-2 24 -7 32
-21 32 -11 0 -23 -4 -26 -10 -10 -15 -45 -12 -45 5 0 7 -8 19 -17 24 -16 9
-16 10 4 11 12 0 25 -5 28 -10 10 -16 25 -1 25 24 0 21 -6 24 -57 30 -32 4
-70 9 -85 12 -18 4 -28 1 -28 -6z"/>
<path d="M5493 10625 c0 -38 2 -53 4 -32 2 20 2 52 0 70 -2 17 -4 1 -4 -38z"/>
<path d="M3765 10613 c-107 -4 -113 -7 -75 -39 17 -15 37 -38 44 -53 16 -31
30 -105 27 -146 -2 -27 2 -24 44 35 43 62 45 66 45 137 0 40 -1 72 -2 71 -2
-1 -39 -3 -83 -5z"/>
<path d="M3653 10550 c-1 -10 4 -21 12 -23 9 -4 11 1 8 14 -7 26 -19 32 -20 9z"/>
<path d="M3538 10489 c-10 -5 -18 -19 -18 -30 0 -29 -37 -97 -60 -109 -17 -9
-20 -21 -20 -90 0 -76 -1 -79 -27 -92 -26 -12 -28 -18 -31 -81 l-3 -69 -64
-29 c-70 -32 -81 -42 -37 -38 15 2 38 -4 52 -14 15 -10 43 -17 73 -17 l49 0
-4 35 c-4 32 -1 36 32 46 19 6 72 30 118 52 61 30 82 45 82 60 0 19 5 19 130
12 l130 -7 0 146 0 146 -34 0 c-60 0 -66 -7 -66 -67 0 -30 -7 -67 -15 -84 -12
-22 -12 -29 -3 -27 7 2 13 -3 13 -11 0 -8 -13 -15 -32 -16 -32 -3 -32 -2 -35
46 l-3 49 -27 -14 c-25 -13 -28 -13 -28 2 0 53 -25 100 -81 155 -64 61 -65 62
-91 46z m117 -329 c0 -13 -160 -102 -202 -112 -39 -10 -26 0 40 32 34 17 80
46 102 65 40 34 60 39 60 15z"/>
<path d="M638 10483 c6 -2 18 -2 25 0 6 3 1 5 -13 5 -14 0 -19 -2 -12 -5z"/>
<path d="M5484 10340 c0 -80 2 -112 3 -72 2 39 2 105 0 145 -1 39 -3 7 -3 -73z"/>
<path d="M1050 10435 c0 -8 5 -15 10 -15 6 0 10 7 10 15 0 8 -4 15 -10 15 -5
0 -10 -7 -10 -15z"/>
<path d="M1098 10413 c7 -3 16 -2 19 1 4 3 -2 6 -13 5 -11 0 -14 -3 -6 -6z"/>
<path d="M1228 10393 c7 -3 16 -2 19 1 4 3 -2 6 -13 5 -11 0 -14 -3 -6 -6z"/>
<path d="M1418 10363 c6 -2 18 -2 25 0 6 3 1 5 -13 5 -14 0 -19 -2 -12 -5z"/>
<path d="M1548 10343 c7 -3 16 -2 19 1 4 3 -2 6 -13 5 -11 0 -14 -3 -6 -6z"/>
<path d="M1608 10333 c7 -3 16 -2 19 1 4 3 -2 6 -13 5 -11 0 -14 -3 -6 -6z"/>
<path d="M1673 10323 c9 -2 23 -2 30 0 6 3 -1 5 -18 5 -16 0 -22 -2 -12 -5z"/>
<path d="M1738 10313 c7 -3 16 -2 19 1 4 3 -2 6 -13 5 -11 0 -14 -3 -6 -6z"/>
<path d="M1808 10303 c6 -2 18 -2 25 0 6 3 1 5 -13 5 -14 0 -19 -2 -12 -5z"/>
<path d="M5502 10260 c0 -14 2 -19 5 -12 2 6 2 18 0 25 -3 6 -5 1 -5 -13z"/>
<path d="M2735 10240 l20 -9 -20 -1 c-11 -1 -27 -2 -36 -1 -9 1 -22 -5 -29
-14 -7 -8 -18 -15 -25 -15 -8 0 -15 -5 -17 -12 -3 -7 -9 -8 -18 -3 -10 6 -7
14 16 32 20 16 23 21 9 17 -11 -4 -22 -10 -25 -14 -3 -3 -27 -19 -53 -34 -32
-18 -52 -38 -59 -57 -5 -16 -14 -29 -20 -29 -5 0 -20 -25 -34 -56 -26 -58 -45
-162 -50 -274 -2 -36 -3 -67 -4 -69 0 -2 -7 2 -15 9 -8 6 -23 9 -34 5 -30 -9
-44 -66 -36 -143 10 -91 14 -100 36 -71 25 33 37 15 15 -22 -20 -34 -12 -53
29 -63 20 -5 25 -13 25 -37 0 -17 9 -74 19 -127 18 -90 26 -201 23 -314 -2
-38 -5 -46 -17 -42 -8 4 -15 10 -15 16 0 14 -28 40 -33 31 -9 -15 35 -128 59
-152 47 -46 29 -56 -79 -42 -5 1 -5 7 -1 14 5 9 4 9 -7 -1 -7 -7 -14 -28 -16
-47 -1 -20 -9 -42 -17 -51 -21 -21 -20 -27 4 -21 16 4 22 -1 28 -26 5 -18 7
-36 3 -42 -3 -5 -4 -22 -2 -37 1 -14 -2 -29 -8 -32 -6 -4 -9 5 -6 24 2 16 -1
32 -6 36 -6 3 -5 12 3 22 11 13 11 14 -2 10 -8 -2 -19 -19 -24 -36 -5 -19 -15
-31 -25 -30 -43 3 -82 -3 -76 -12 3 -5 -1 -10 -11 -10 -14 0 -16 7 -11 48 4
26 9 77 13 114 7 66 6 68 -20 77 -43 17 -56 5 -56 -53 0 -28 -5 -58 -11 -66
-7 -11 -8 0 -4 38 5 35 3 52 -4 52 -6 0 -11 -4 -11 -10 0 -17 -21 -11 -44 11
-22 21 -25 69 -5 69 5 0 9 5 9 10 0 16 -26 11 -43 -8 -9 -10 -22 -41 -30 -70
-12 -50 -27 -60 -27 -20 0 19 -42 68 -58 68 -18 0 -23 -33 -7 -42 20 -12 20
-48 0 -48 -9 0 -19 -8 -22 -17 -4 -10 -11 -21 -17 -25 -6 -4 -5 -16 4 -35 8
-15 16 -32 18 -37 3 -4 -13 3 -34 18 -41 28 -60 33 -48 14 5 -8 2 -9 -9 -5
-51 21 -53 21 -31 -2 18 -20 20 -27 10 -61 -7 -28 -16 -40 -30 -42 -16 -2 -21
-10 -19 -29 1 -17 -6 -28 -20 -35 -18 -7 -21 -16 -19 -46 3 -36 -11 -53 -21
-25 -8 23 -17 0 -20 -56 -2 -31 0 -57 5 -57 5 0 6 -5 3 -10 -5 -8 -12 -7 -22
1 -13 11 -14 8 -8 -23 4 -22 3 -38 -4 -43 -6 -3 -9 -11 -5 -16 3 -5 2 -15 -3
-22 -12 -16 -14 -55 -3 -62 5 -3 7 -12 4 -20 -4 -8 -11 -12 -17 -8 -7 4 -8 -5
-4 -28 5 -24 4 -30 -3 -19 -5 8 -10 30 -10 48 0 18 -4 31 -9 27 -8 -4 -7 -107
1 -143 3 -14 -15 -87 -24 -98 -5 -8 -3 -14 7 -18 8 -3 15 -12 15 -21 0 -8 1
-15 3 -15 1 0 20 -7 42 -15 l40 -14 -37 -1 c-20 0 -40 5 -43 10 -9 15 -35 12
-35 -4 0 -8 8 -16 18 -19 14 -3 12 -6 -10 -17 -27 -13 -28 -15 -28 -102 0 -48
2 -88 5 -88 2 0 15 11 28 23 33 34 182 50 162 17 -2 -4 9 -13 25 -20 39 -16
47 -29 14 -22 -17 3 -24 0 -22 -8 2 -8 -17 -17 -49 -25 -56 -13 -103 -39 -103
-57 0 -6 -7 -19 -15 -28 -23 -26 -30 -135 -11 -195 8 -27 14 -50 12 -52 -1 -2
-61 -6 -132 -9 -71 -3 -158 -9 -194 -12 l-65 -8 51 -26 c40 -21 59 -25 92 -21
40 5 42 4 42 -20 0 -37 24 -41 193 -33 78 3 150 6 160 6 10 0 15 5 12 10 -4 6
5 10 20 10 15 0 24 -4 20 -10 -4 -6 7 -10 27 -10 18 0 67 -9 108 -19 69 -16
76 -20 81 -47 10 -44 10 -86 1 -80 -5 3 -19 -2 -31 -11 -20 -14 -22 -21 -16
-67 4 -28 13 -58 21 -66 7 -9 11 -26 7 -38 -3 -14 -1 -22 7 -22 10 0 10 -3 0
-15 -16 -20 -28 -19 -32 3 -3 11 -6 8 -10 -11 -3 -16 0 -33 7 -41 7 -6 16 -22
19 -34 4 -12 12 -22 17 -22 5 0 9 -10 9 -21 0 -18 -5 -20 -26 -16 l-27 5 6
-57 c3 -31 8 -67 11 -81 3 -13 -1 -34 -9 -46 -13 -21 -12 -22 21 -28 19 -4 32
-11 29 -17 -9 -13 -52 -11 -58 4 -3 6 -6 -3 -6 -21 -1 -18 -11 -50 -23 -71
-22 -38 -22 -39 -2 -66 10 -15 24 -35 29 -44 6 -9 18 -27 28 -40 9 -13 17 -35
17 -50 0 -41 36 -158 43 -141 3 8 4 3 0 -13 -4 -20 2 -36 21 -62 15 -19 22
-35 15 -35 -25 0 29 -229 77 -321 7 -15 11 -36 7 -45 -4 -11 -2 -15 4 -11 6 4
16 -13 24 -41 14 -51 54 -122 68 -122 20 0 49 -70 65 -155 15 -80 39 -349 37
-415 -4 -127 1 -255 9 -266 8 -9 8 -14 -1 -19 -15 -10 -4 -108 16 -144 25 -46
35 -99 19 -105 -18 -7 -18 -30 0 -81 8 -22 28 -105 45 -185 18 -80 36 -162 42
-183 9 -35 7 -44 -23 -94 -18 -30 -45 -64 -60 -75 -16 -10 -28 -26 -28 -34 0
-7 -8 -13 -17 -12 -39 3 -53 -3 -53 -21 0 -28 -48 -63 -74 -55 -12 4 -27 7
-34 7 -7 0 -10 7 -7 18 9 26 -31 14 -84 -27 -24 -19 -50 -34 -57 -34 -20 0
-45 -44 -49 -87 -1 -21 6 -78 16 -127 10 -49 19 -102 19 -117 0 -14 7 -32 15
-39 20 -16 44 -105 46 -170 1 -30 -4 -121 -12 -202 -10 -114 -10 -153 -1 -173
7 -14 12 -35 12 -46 0 -40 52 -135 103 -186 40 -41 49 -55 39 -65 -22 -22 -12
-36 37 -53 61 -20 158 -17 153 5 -2 8 -3 77 -3 155 1 151 14 213 55 275 13 19
27 47 30 62 5 23 3 28 -12 28 -10 0 -23 -5 -30 -12 -23 -23 -23 18 2 83 35 93
90 170 137 193 21 10 39 22 39 27 0 31 83 -44 94 -84 4 -16 17 -32 31 -37 15
-6 25 -17 25 -29 0 -11 6 -26 14 -34 8 -8 18 -31 22 -51 6 -32 4 -38 -14 -43
-11 -3 -26 -19 -31 -35 -15 -42 -14 -48 8 -48 16 0 19 -11 24 -89 5 -76 3 -95
-14 -127 -10 -21 -19 -45 -19 -54 0 -8 -7 -28 -16 -45 -11 -22 -15 -58 -14
-145 1 -63 1 -120 1 -127 -1 -6 -13 -14 -28 -16 l-28 -4 30 -2 c25 -1 34 -9
52 -43 12 -24 26 -70 31 -103 l10 -60 1 65 c1 36 5 60 9 54 9 -14 96 -59 154
-79 24 -8 65 -15 92 -15 43 0 53 4 85 37 21 22 42 57 49 81 7 23 17 60 23 81
11 36 10 98 -5 344 -2 37 -9 55 -33 80 -35 36 -54 103 -27 93 9 -3 18 -6 20
-6 2 0 4 -6 4 -14 0 -8 5 -27 11 -43 10 -26 12 -27 19 -8 12 29 12 97 0 90 -5
-3 -10 -2 -10 4 0 5 -3 16 -6 25 -4 11 -1 16 10 16 23 0 20 16 -6 34 -18 13
-19 16 -6 16 9 0 20 -5 23 -10 3 -5 14 -10 24 -10 15 0 19 10 23 57 3 32 8 65
12 74 5 10 -7 32 -34 65 -47 57 -49 70 -15 78 38 10 49 40 31 86 -9 22 -13 46
-10 53 3 8 -13 54 -34 103 -23 52 -47 126 -56 179 -9 50 -23 120 -32 157 l-15
67 60 75 c34 41 61 77 61 81 0 4 -12 0 -26 -10 -14 -9 -28 -15 -30 -12 -6 6
54 57 68 57 6 0 9 2 6 5 -3 3 12 23 34 45 21 23 38 47 38 54 0 7 9 21 20 31
11 10 20 26 20 35 0 10 7 23 15 30 8 7 15 20 15 29 0 9 20 30 45 45 25 16 45
33 45 38 0 5 -5 6 -12 2 -7 -4 -8 -3 -4 4 4 7 13 12 19 12 18 1 49 31 85 84
31 45 40 74 12 41 -7 -8 -19 -15 -28 -15 -9 0 -6 7 12 21 14 11 31 17 37 14
12 -8 33 13 70 70 117 180 163 461 133 815 -8 92 -9 240 -2 477 2 79 -1 116
-10 125 -6 6 -12 20 -12 30 0 10 -5 18 -11 18 -5 0 -8 4 -5 9 8 12 -31 44 -43
36 -16 -10 -13 14 4 31 17 17 20 64 5 64 -6 0 -15 11 -20 25 -5 14 -14 25 -20
25 -5 0 -10 8 -10 18 0 10 -6 24 -12 31 -10 11 -10 14 0 18 6 3 12 18 12 34 0
23 4 29 22 29 21 0 20 1 -8 28 -16 16 -36 32 -44 35 -8 3 -1 6 17 6 17 1 35
-5 39 -11 6 -9 10 -5 14 12 3 14 12 25 20 25 17 0 18 11 6 77 -6 33 -13 48
-27 51 -18 5 -18 6 -2 35 17 30 17 31 -4 54 -49 53 -58 135 -17 167 35 27 48
76 29 110 -16 30 -47 132 -41 138 2 2 29 7 60 10 65 7 72 18 19 28 -85 16 10
23 407 29 486 9 767 20 794 31 11 5 17 5 14 -1 -4 -5 48 -6 130 -2 76 3 257 9
405 13 257 8 267 9 267 28 0 16 -4 18 -22 12 -46 -16 -980 -44 -966 -29 3 2
63 7 134 10 71 4 131 9 134 12 3 2 -235 2 -528 -1 -462 -4 -533 -3 -541 10
-10 19 -93 29 -243 28 -137 0 -129 -9 -121 130 l6 95 28 0 c15 0 40 5 54 10
33 13 170 41 182 38 41 -12 104 94 103 175 -1 28 -1 65 -1 80 0 15 -4 25 -8
22 -5 -2 -12 17 -16 43 -8 51 -26 90 -65 135 -27 31 -37 87 -15 87 22 0 85
-30 85 -40 0 -6 4 -10 9 -10 5 0 12 25 16 56 6 49 4 61 -15 86 -15 21 -21 40
-18 63 4 33 3 33 -32 29 -31 -4 -32 -3 -11 6 21 9 22 12 9 33 -8 12 -18 43
-22 69 -4 26 -11 50 -17 53 -5 4 -9 20 -9 36 0 42 -21 120 -30 114 -5 -3 -3
11 3 31 7 24 8 38 0 42 -15 10 -33 48 -33 71 0 11 -8 26 -19 33 -10 7 -22 28
-25 46 -4 17 -12 32 -17 32 -5 0 -9 5 -9 11 0 6 -11 25 -25 43 -14 18 -22 36
-18 39 3 4 -1 7 -9 7 -19 0 -39 50 -32 78 3 10 -2 24 -10 31 -13 11 -17 9 -27
-13 -7 -14 -16 -23 -20 -20 -5 3 -9 -2 -9 -10 0 -32 -32 -15 -47 24 -17 43
-33 53 -33 20 0 -23 -10 -26 -28 -8 -6 6 -32 11 -56 11 l-45 0 -6 56 c-9 80
-9 79 -42 44 -17 -18 -35 -33 -41 -33 -5 0 -18 17 -27 38 -21 45 -56 76 -67
59 -5 -8 -8 -5 -8 7 0 11 -3 16 -7 12 -5 -4 -8 -17 -8 -29 0 -11 -6 -22 -14
-25 -8 -3 -11 0 -7 7 4 6 1 11 -8 11 -13 0 -13 4 0 35 15 37 10 46 -12 18 -12
-16 -13 -16 -9 6 3 18 2 22 -6 14 -14 -14 -54 21 -62 52 -5 19 -5 19 -12 -2
-4 -13 -11 -23 -16 -23 -12 0 -11 47 1 55 6 3 10 12 10 19 0 8 17 40 39 72 37
57 66 123 57 131 -2 3 -7 -5 -11 -16 -8 -26 -16 -26 -38 -1 -12 14 -17 38 -17
76 0 54 -21 114 -40 114 -6 0 -10 4 -10 10 0 5 17 7 38 4 28 -4 42 -1 51 10
12 14 10 16 -13 16 -15 0 -25 4 -22 9 3 5 -3 11 -14 14 -23 6 -28 47 -5 47 8
0 29 9 47 19 17 11 36 17 41 14 5 -3 6 16 3 43 -3 31 -3 40 2 24 8 -24 8 -24
15 9 6 28 2 40 -18 67 -15 19 -30 34 -34 34 -4 0 -18 9 -31 20 -25 22 -40 26
-40 10 0 -5 -5 -10 -12 -10 -9 0 -9 3 0 12 7 7 12 16 12 20 0 11 -38 10 -61
-2 -13 -7 -19 -7 -19 0 0 5 -21 10 -46 10 -25 0 -43 4 -40 9 3 5 -3 11 -14 14
-26 7 -36 35 -22 58 15 24 16 89 1 89 -11 0 -39 24 -39 34 0 13 45 5 62 -11
12 -11 18 -12 18 -4 0 7 10 11 23 10 12 -1 30 1 39 5 19 9 38 0 38 -16 0 -6
-6 -6 -15 2 -13 11 -14 10 -9 -4 3 -9 12 -16 20 -16 10 0 14 -13 14 -45 0 -32
6 -51 21 -66 l21 -21 16 24 c9 12 22 29 29 36 7 7 13 18 13 23 0 5 9 9 19 9
19 0 32 -19 36 -53 1 -11 6 -22 11 -25 25 -18 58 -132 55 -187 -4 -62 5 -39
23 56 20 107 20 153 -3 255 -13 63 -24 89 -49 115 -18 19 -32 39 -32 44 0 14
-67 85 -79 85 -6 0 -11 4 -11 8 0 4 -26 13 -57 20 -32 7 -76 16 -98 21 -46 11
-53 8 -35 -14 10 -12 10 -15 -3 -15 -9 0 -18 4 -21 9 -3 4 -24 11 -46 15 -49
8 -44 30 5 24 19 -2 31 0 29 4 -3 4 -31 8 -62 7 -41 0 -51 -3 -37 -9z m2 -46
c-15 -8 -25 -19 -22 -23 3 -5 -6 -12 -20 -15 -17 -4 -23 -11 -18 -23 5 -13 2
-15 -15 -11 -12 4 -20 2 -16 -3 3 -5 0 -9 -5 -9 -6 0 -11 -6 -11 -14 0 -7 -7
-19 -16 -27 -13 -11 -14 -9 -8 17 9 40 11 42 57 71 23 14 46 32 50 39 4 8 18
14 30 14 20 -1 20 -2 -6 -16z m-147 -14 c0 -5 -5 -10 -11 -10 -5 0 -7 5 -4 10
3 6 8 10 11 10 2 0 4 -4 4 -10z m24 -24 c-21 -15 -30 -14 -19 3 3 6 14 11 23
11 13 0 13 -2 -4 -14z m-136 -154 c-5 -23 -28 -27 -28 -4 0 10 7 19 15 19 9 0
15 -7 13 -15z m-34 -58 c9 -24 7 -64 -3 -64 -6 0 -8 9 -6 20 2 11 0 22 -6 25
-12 8 -12 35 0 35 5 0 12 -7 15 -16z m170 -173 c9 -13 -42 -71 -62 -71 -15 -1
-15 -2 1 -11 18 -10 18 -11 0 -25 -25 -19 -50 -19 -33 0 9 12 6 16 -24 21 -19
4 -39 4 -44 1 -6 -3 -12 1 -16 9 -4 11 1 15 17 15 16 0 26 9 34 30 6 17 16 30
23 30 6 0 8 -4 5 -10 -8 -13 -3 -13 36 5 40 17 56 18 63 6z m-125 -118 c17
-10 31 -23 31 -29 0 -6 11 -23 25 -38 24 -26 35 -64 16 -51 -5 3 -13 0 -16 -6
-4 -5 -14 -8 -22 -5 -9 4 -23 -3 -34 -15 -22 -25 -20 -26 -43 24 -18 40 -25
44 -44 25 -9 -9 -12 -8 -12 6 0 10 9 20 19 23 13 3 18 10 14 21 -4 10 -2 13 5
8 8 -5 12 3 12 23 0 36 7 38 49 14z m184 -112 c26 -8 44 -19 44 -27 0 -11 -7
-14 -26 -10 -26 6 -26 6 2 -10 38 -21 29 -27 -24 -15 -53 12 -69 32 -69 85 l1
41 14 -26 c9 -18 29 -30 58 -38z m255 -20 c-1 -7 18 -57 33 -88 16 -30 2 -49
-21 -28 -10 9 -24 15 -32 14 -31 -4 -41 1 -29 14 6 8 7 18 2 23 -4 5 -4 28 1
51 8 38 11 41 28 31 10 -7 18 -14 18 -17z m-222 -89 c-10 -2 -22 0 -28 6 -6 6
0 7 19 4 21 -5 23 -7 9 -10z m311 2 c-3 -3 -12 -4 -19 -1 -8 3 -5 6 6 6 11 1
17 -2 13 -5z m-103 -180 c20 -8 21 -34 1 -34 -8 0 -15 6 -15 14 0 8 -12 17
-27 19 l-28 4 27 2 c14 0 33 -2 42 -5z m-604 -738 c0 -3 -4 -8 -10 -11 -5 -3
-10 -1 -10 4 0 6 5 11 10 11 6 0 10 -2 10 -4z m-550 -136 c0 -5 -2 -10 -4 -10
-3 0 -8 5 -11 10 -3 6 -1 10 4 10 6 0 11 -4 11 -10z m-90 -170 c0 -5 -4 -10
-10 -10 -5 0 -10 5 -10 10 0 6 5 10 10 10 6 0 10 -4 10 -10z m1866 -345 c-26
-19 -42 -19 -26 0 7 8 20 15 29 15 13 -1 13 -3 -3 -15z m431 -147 c-3 -8 -6
-5 -6 6 -1 11 2 17 5 13 3 -3 4 -12 1 -19z m-1709 -68 c73 -61 159 -100 222
-100 22 0 30 -5 30 -18 0 -10 5 -23 11 -29 23 -23 0 -39 -79 -57 -89 -20 -141
-16 -208 14 -23 11 -71 24 -108 31 -64 11 -67 10 -86 -12 l-19 -24 6 38 c4 24
2 37 -6 37 -6 0 -11 -6 -12 -12 0 -10 -2 -10 -5 -1 -3 7 13 43 35 82 40 67 86
106 132 110 9 0 48 -26 87 -59z m1575 53 c-7 -2 -19 -2 -25 0 -7 3 -2 5 12 5
14 0 19 -2 13 -5z m-155 -89 c100 -13 49 -43 -73 -44 -66 0 -180 -25 -230 -49
-22 -11 -83 -29 -136 -40 -82 -17 -121 -20 -274 -16 -99 3 -182 9 -186 13 -3
4 -9 21 -12 38 l-6 32 202 5 c138 3 224 10 272 21 169 40 323 54 443 40z
m-1102 -54 c13 0 24 5 24 10 0 13 71 13 104 1 17 -7 26 -7 30 2 2 7 5 4 5 -6
1 -10 -6 -25 -14 -33 -8 -9 -15 -12 -15 -8 0 3 -6 2 -13 -4 -28 -23 -173 9
-162 36 3 7 6 19 6 25 1 7 3 4 6 -5 3 -11 14 -18 29 -18z m-591 -105 c18 -9
36 -23 39 -31 4 -11 -10 -13 -83 -8 -119 7 -145 15 -149 44 -4 23 -3 23 77 17
45 -4 97 -14 116 -22z m204 -49 c21 5 30 1 35 -12 6 -15 9 -16 16 -4 7 11 17
12 64 1 31 -7 62 -19 70 -27 8 -8 21 -14 28 -14 19 -1 49 -26 40 -34 -4 -4
-22 -14 -40 -21 -29 -13 -40 -12 -95 5 -34 11 -75 29 -92 40 -44 29 -57 37
-85 49 l-25 11 27 -5 c19 -4 27 -1 24 7 -1 7 -1 10 1 6 3 -4 17 -5 32 -2z
m1036 -326 c-3 -5 -10 -10 -16 -10 -5 0 -9 5 -9 10 0 6 7 10 16 10 8 0 12 -4
9 -10z m-102 -17 c-7 -2 -19 -2 -25 0 -7 3 -2 5 12 5 14 0 19 -2 13 -5z
m-1166 -655 c-3 -8 -6 -5 -6 6 -1 11 2 17 5 13 3 -3 4 -12 1 -19z m92 -42
c-12 -12 -79 -9 -79 3 0 14 38 20 44 7 2 -6 5 -2 5 9 1 18 2 18 18 2 9 -9 15
-18 12 -21z m913 -1304 c10 -31 20 -82 24 -112 3 -30 13 -79 21 -108 13 -48
13 -55 -2 -78 -15 -24 -15 -29 1 -74 15 -40 16 -56 6 -86 -8 -26 -8 -43 0 -57
25 -47 -33 -227 -74 -227 -10 0 1 81 15 97 5 7 7 25 4 40 -3 16 -1 69 5 118 9
76 8 107 -7 190 -19 114 -32 355 -19 355 5 0 17 -26 26 -58z m368 -1229 c0 -5
-5 -15 -10 -23 -8 -12 -10 -11 -10 8 0 12 5 22 10 22 6 0 10 -3 10 -7z m-55
-72 c-3 -6 -14 -11 -23 -11 -13 0 -13 2 4 14 21 15 30 14 19 -3z m-1153 -451
c-2 -17 -10 -30 -18 -30 -8 0 -14 -4 -14 -10 0 -5 -7 -10 -15 -10 -21 0 -19 6
11 46 32 42 42 43 36 4z m-5 -147 c-3 -10 -5 -4 -5 12 0 17 2 24 5 18 2 -7 2
-21 0 -30z m46 -398 c-3 -9 -8 -14 -10 -11 -3 3 -2 9 2 15 9 16 15 13 8 -4z
m-8 -82 c-4 -11 -9 -13 -16 -6 -7 7 -6 19 3 39 12 27 13 27 16 5 2 -12 1 -30
-3 -38z m1000 -443 c18 -20 11 -25 -19 -14 -17 6 -23 34 -8 34 5 0 17 -9 27
-20z m35 -250 c0 -45 -13 -54 -54 -40 -29 9 -36 16 -34 33 2 18 9 22 36 21 26
-2 32 2 32 20 0 17 2 18 10 6 5 -8 10 -26 10 -40z m-155 -135 l30 -13 -40 5
c-22 3 -47 9 -55 14 -26 15 32 10 65 -6z"/>
<path d="M2644 7554 c-18 -14 -18 -15 6 -8 14 4 34 7 45 6 16 -1 17 1 5 8 -21
14 -33 12 -56 -6z"/>
<path d="M4671 9991 c-23 -6 -24 -10 -22 -71 3 -60 4 -77 10 -135 2 -19 2 -19
16 -2 8 11 12 33 9 55 -3 28 -2 32 5 17 7 -17 10 -15 16 17 4 20 4 41 0 47 -3
6 -4 11 -1 11 11 0 40 -67 47 -110 4 -25 10 -56 13 -70 3 -14 8 -46 11 -72 8
-59 23 -62 28 -5 3 26 4 21 2 -15 0 -32 2 -58 7 -58 4 0 8 17 8 38 0 20 3 110
7 200 l5 162 -68 -1 c-38 -1 -80 -4 -93 -8z"/>
<path d="M3495 9930 l-30 -8 37 -1 c20 0 40 4 43 9 7 11 -6 11 -50 0z"/>
<path d="M184 9880 c-6 -39 -8 -40 -43 -38 -20 1 -60 1 -88 0 l-53 -2 0 -93 0
-94 45 7 c25 4 46 9 48 11 2 2 8 16 15 32 11 25 15 27 50 21 48 -8 70 12 52
47 -7 12 -12 50 -12 85 1 73 -5 82 -14 24z"/>
<path d="M744 9808 c7 -72 62 -720 72 -850 6 -85 6 -87 -15 -81 -17 4 -21 1
-21 -20 0 -32 -12 -40 -34 -24 -21 15 -40 168 -56 447 -6 107 -13 219 -17 248
l-5 52 -134 0 c-73 0 -135 -3 -137 -7 -3 -5 2 -71 9 -148 8 -77 18 -194 24
-260 6 -66 14 -159 18 -207 8 -87 8 -88 -15 -88 -19 0 -23 -5 -23 -30 0 -22
-5 -30 -17 -29 -11 0 -13 3 -5 6 6 2 12 11 12 19 0 11 -7 13 -27 8 -16 -4 -33
-10 -38 -15 -10 -7 -51 -1 -102 15 -19 6 -22 4 -16 -10 4 -12 3 -15 -5 -10 -7
4 -12 14 -12 22 0 8 -3 14 -7 14 -5 0 -8 -19 -7 -42 l0 -41 90 -19 c49 -11
116 -25 149 -32 l60 -13 -2 -39 c-1 -36 1 -40 23 -42 14 -1 23 2 20 7 -3 4 19
7 50 6 30 -1 57 2 60 6 4 7 17 3 61 -16 4 -2 22 -218 25 -292 l3 -73 117 0
c77 0 118 4 118 11 0 12 42 8 52 -6 16 -22 19 9 11 110 -5 59 -7 124 -4 144
l5 36 5 -30 c4 -21 13 -31 28 -33 22 -3 27 -24 37 -172 l3 -45 56 -3 56 -3 -4
43 c-3 24 -12 143 -21 265 -9 122 -22 241 -29 265 l-14 43 0 -35 c-1 -20 -5
-40 -9 -45 -5 -6 -3 -73 4 -150 19 -221 27 -381 19 -373 -4 4 -11 60 -16 125
-25 363 -41 493 -61 493 -8 0 -12 -17 -8 -35 1 -5 -7 -2 -18 8 -10 9 -22 17
-26 17 -5 0 -7 -58 -4 -130 2 -71 0 -130 -4 -130 -4 0 -8 29 -8 65 0 50 -3 65
-15 65 -12 0 -13 -27 -10 -177 3 -98 6 -185 7 -193 0 -8 0 -35 -2 -60 -2 -42
-3 -43 -10 -15 -5 22 -8 24 -10 10 -3 -34 -18 30 -29 124 -6 48 -15 124 -22
171 -6 47 -11 97 -11 113 1 17 -5 27 -14 27 -9 0 -23 8 -32 17 -14 14 -17 37
-17 122 1 63 -2 94 -6 76 -5 -19 -7 1 -7 55 0 140 -12 381 -23 449 -14 88 -14
303 0 329 6 11 18 28 27 36 14 15 10 16 -41 16 l-57 0 6 -62z m-132 -458 c18
-19 23 -30 15 -33 -25 -9 -117 41 -117 64 0 18 77 -5 102 -31z m-90 -17 c10
-9 44 -22 76 -28 51 -10 57 -14 60 -38 3 -26 2 -27 -50 -27 -54 0 -80 12 -129
58 -23 23 -24 24 -5 38 25 18 25 18 48 -3z m-75 -90 c-3 -10 -5 -4 -5 12 0 17
2 24 5 18 2 -7 2 -21 0 -30z m20 0 c-3 -10 -5 -4 -5 12 0 17 2 24 5 18 2 -7 2
-21 0 -30z m98 -27 l40 -8 2 -84 c2 -83 2 -84 -22 -84 -18 0 -24 -6 -27 -27
l-3 -28 -18 34 c-9 19 -22 67 -28 105 -6 39 -15 75 -20 81 -24 24 -9 27 76 11z
m48 -263 c-7 -2 -19 -2 -25 0 -7 3 -2 5 12 5 14 0 19 -2 13 -5z m5 -41 c2 -7
-6 -12 -17 -12 -21 0 -27 11 -14 24 9 9 26 2 31 -12z m23 -19 c-12 -20 -14
-14 -5 12 4 9 9 14 11 11 3 -2 0 -13 -6 -23z m59 -39 c0 -19 -4 -34 -10 -34
-13 0 -24 45 -16 66 10 25 26 6 26 -32z m374 -34 c-6 -6 -5 -63 2 -157 6 -81
10 -150 8 -152 -9 -10 -12 10 -19 114 -4 61 -8 129 -10 152 -2 23 -6 46 -9 51
-8 13 16 22 29 11 5 -6 5 -13 -1 -19z m-544 0 c0 -5 -7 -10 -16 -10 -8 0 -12
5 -9 10 3 6 10 10 16 10 5 0 9 -4 9 -10z m60 0 c0 -5 -5 -10 -11 -10 -5 0 -7
5 -4 10 3 6 8 10 11 10 2 0 4 -4 4 -10z"/>
<path d="M2000 9742 c0 -24 40 -42 108 -47 77 -6 91 2 42 23 -17 8 -28 18 -24
23 3 5 -23 9 -60 9 -36 0 -66 -4 -66 -8z"/>
<path d="M2051 9612 l-34 -3 7 -106 c3 -58 6 -121 6 -140 0 -18 5 -33 10 -33
6 0 10 7 10 15 0 8 4 15 8 15 5 0 17 18 27 40 11 24 22 37 29 32 6 -4 22 -7
36 -8 76 -2 85 -5 108 -37 l22 -32 0 28 c0 16 -5 38 -11 49 -8 15 -8 19 0 14
13 -9 15 142 2 162 -8 13 -109 14 -220 4z"/>
<path d="M1625 9602 c-7 -4 -8 -44 -4 -112 4 -58 7 -126 8 -152 1 -27 6 -48
11 -48 6 0 10 6 10 13 0 20 30 77 51 98 22 22 49 24 68 7 11 -10 14 -10 18 0
8 20 20 14 33 -18 7 -16 16 -30 21 -30 5 0 9 -6 9 -13 0 -7 9 -13 20 -14 20
-2 20 2 14 125 -3 70 -7 133 -10 140 -4 13 -231 18 -249 4z"/>
<path d="M975 9503 c7 -90 17 -123 48 -157 17 -20 21 -30 18 -53 -1 -7 3 -13
9 -13 5 0 10 -18 10 -40 0 -22 -4 -40 -10 -40 -6 0 -10 -25 -9 -57 1 -71 15
-169 19 -133 2 19 5 15 10 -15 6 -36 7 -33 10 30 l3 70 7 -63 c11 -96 22 -87
15 13 -3 50 -10 171 -15 270 -6 99 -13 201 -17 228 l-6 47 -49 0 -49 0 6 -87z
m102 -255 c-3 -8 -6 -5 -6 6 -1 11 2 17 5 13 3 -3 4 -12 1 -19z m-20 -80 c-3
-8 -6 -5 -6 6 -1 11 2 17 5 13 3 -3 4 -12 1 -19z m0 -85 c-3 -10 -5 -4 -5 12
0 17 2 24 5 18 2 -7 2 -21 0 -30z"/>
<path d="M3207 9534 c-2 -14 -1 -39 3 -57 7 -31 7 -31 13 -7 13 56 14 79 2 84
-8 3 -15 -6 -18 -20z"/>
<path d="M4823 9480 c0 -25 2 -35 4 -22 2 12 2 32 0 45 -2 12 -4 2 -4 -23z"/>
<path d="M5129 9428 c-1 -7 -1 -16 -1 -19 2 -10 -37 2 -44 12 -3 5 -66 9 -139
9 l-135 0 9 -22 c12 -33 2 -470 -11 -485 -6 -7 -23 -13 -39 -13 l-29 0 -1
-122 c0 -68 -5 -163 -10 -213 -5 -49 -9 -99 -9 -110 -1 -11 -6 -23 -13 -28 -9
-7 -9 -10 1 -14 6 -2 10 -8 8 -11 -2 -4 20 -5 50 -4 l54 4 0 110 c0 70 4 107
10 103 6 -3 10 -52 10 -111 l0 -106 33 3 c17 1 73 1 124 0 108 -1 123 -10 123
-77 0 -24 5 -44 10 -44 17 0 60 51 60 70 0 23 32 50 58 50 21 0 22 4 22 108
l0 107 -36 -37 c-19 -21 -41 -38 -48 -38 -13 0 -96 81 -96 93 0 4 16 24 35 43
29 29 39 33 50 24 12 -10 18 -10 30 0 13 11 20 9 40 -10 l25 -23 0 101 0 102
-32 1 c-31 0 -31 1 -10 10 13 5 28 7 33 3 5 -3 9 6 9 20 0 26 -23 36 -35 16
-3 -5 -14 -10 -23 -10 -11 0 -6 8 16 21 67 43 50 45 -198 19 -58 -6 -116 -8
-130 -5 -52 13 7 22 185 29 99 4 182 10 185 12 3 3 7 80 9 170 2 137 1 164
-11 164 -19 0 -42 44 -34 65 3 9 15 19 26 22 44 12 16 23 -55 23 -53 0 -75 -4
-76 -12z m-139 -88 c28 -28 26 -81 -2 -106 -52 -46 -128 -18 -128 46 0 66 85
105 130 60z m90 -20 c0 -5 -9 -10 -20 -10 -11 0 -20 5 -20 10 0 6 9 10 20 10
11 0 20 -4 20 -10z m190 -20 c0 -5 -4 -10 -10 -10 -5 0 -10 5 -10 10 0 6 5 10
10 10 6 0 10 -4 10 -10z m-170 -80 c0 -5 -4 -10 -10 -10 -5 0 -10 5 -10 10 0
6 5 10 10 10 6 0 10 -4 10 -10z m-10 -21 c11 -7 4 -8 -25 -3 -33 5 -38 4 -28
-7 7 -7 29 -13 48 -12 23 1 35 -3 32 -10 -5 -18 -69 -20 -92 -4 -16 13 -17 17
-6 31 15 18 49 21 71 5z m-120 -69 c15 -28 -2 -55 -41 -69 -43 -15 -64 -14
-79 4 -16 20 -5 47 27 67 38 24 80 23 93 -2z m258 -37 c5 -30 -22 -46 -73 -41
-25 2 -45 0 -45 -3 0 -9 -47 -17 -57 -10 -4 3 -9 16 -11 28 -3 25 6 29 93 38
33 4 62 9 64 11 10 9 26 -4 29 -23z m-285 -170 c-7 -2 -19 -2 -25 0 -7 3 -2 5
12 5 14 0 19 -2 13 -5z m202 -53 c-16 -4 -48 -7 -70 -7 l-40 0 45 7 c25 4 56
7 70 7 22 1 21 0 -5 -7z m-192 -17 c-7 -2 -21 -2 -30 0 -10 3 -4 5 12 5 17 0
24 -2 18 -5z m-113 -23 c0 -11 -4 -20 -10 -20 -5 0 -10 9 -10 20 0 11 5 20 10
20 6 0 10 -9 10 -20z m73 -12 c-11 -13 -26 -39 -32 -58 -16 -50 -50 -102 -61
-95 -6 4 -3 17 8 33 28 40 45 89 36 103 -5 8 -3 9 6 4 10 -6 12 -4 7 9 -4 9
-3 14 2 11 5 -3 12 -1 16 5 3 5 13 10 22 10 14 0 13 -4 -4 -22z m133 -153
c-11 -8 -14 -15 -8 -15 19 0 14 -20 -5 -20 -17 -1 -17 -1 0 -14 22 -17 22 -26
-2 -26 -16 0 -21 8 -23 38 -4 37 -8 34 -25 -18 -4 -13 -7 -12 -18 3 -13 18
-14 18 -23 0 -13 -22 -18 -17 -26 27 -6 31 -6 33 7 17 14 -17 15 -17 22 0 6
17 7 17 21 -1 12 -16 14 -17 14 -4 0 17 18 25 60 27 24 0 24 0 6 -14z m-66
-164 c0 -23 -14 -41 -30 -41 -19 0 -34 25 -24 41 7 12 54 12 54 0z"/>
<path d="M4385 9275 c4 -74 4 -205 0 -290 l-7 -154 -32 -6 c-17 -3 -69 -8
-116 -11 -47 -3 -103 -7 -125 -9 -22 -2 -59 -3 -82 -4 l-43 -1 0 -187 c0 -104
3 -198 6 -210 5 -19 13 -23 50 -23 85 0 123 38 73 74 -17 12 -20 21 -14 43 8
33 32 63 51 63 8 0 14 15 16 38 2 30 7 38 26 40 22 3 28 -8 23 -53 -1 -11 6
-25 14 -31 10 -7 20 -38 25 -75 6 -41 15 -68 26 -76 12 -9 52 -13 118 -13 93
1 103 3 130 26 19 17 30 38 33 64 5 33 10 40 28 40 20 0 21 3 15 48 -6 35 -4
49 6 55 20 12 21 557 1 557 -8 0 -19 11 -25 24 -10 22 -8 25 11 28 20 3 22 9
23 65 l1 61 -24 -29 c-15 -17 -35 -29 -49 -29 -31 0 -30 7 5 40 l29 28 -24 11
c-13 6 -24 15 -24 21 0 6 -31 10 -76 10 l-76 0 7 -135z m148 -189 c7 -17 -55
-86 -76 -86 -32 0 -26 52 9 80 16 14 17 13 11 -3 -4 -11 -3 -16 3 -12 6 3 10
13 10 21 0 18 36 18 43 0z m-5 -170 c2 -15 0 -26 -5 -23 -16 9 -53 -12 -47
-28 8 -20 41 -19 53 3 6 9 11 12 11 5 0 -15 -28 -43 -43 -43 -14 1 -57 65 -57
85 0 19 30 35 60 32 19 -1 26 -8 28 -31z m10 -208 c4 -23 -33 -41 -69 -33 -22
5 -29 12 -29 30 0 28 12 33 59 25 22 -3 37 -12 39 -22z m55 -65 c-7 -2 -19 -2
-25 0 -7 3 -2 5 12 5 14 0 19 -2 13 -5z m-256 -125 c-2 -24 -4 -5 -4 42 0 47
2 66 4 43 2 -24 2 -62 0 -85z"/>
<path d="M4610 9380 c0 -5 5 -10 10 -10 6 0 10 5 10 10 0 6 -4 10 -10 10 -5 0
-10 -4 -10 -10z"/>
<path d="M4800 9371 c0 -6 4 -13 10 -16 6 -3 7 1 4 9 -7 18 -14 21 -14 7z"/>
<path d="M1815 9310 c3 -5 10 -10 16 -10 5 0 9 5 9 10 0 6 -7 10 -16 10 -8 0
-12 -4 -9 -10z"/>
<path d="M1680 9299 c0 -5 9 -9 20 -9 11 0 20 2 20 4 0 2 -9 6 -20 9 -11 3
-20 1 -20 -4z"/>
<path d="M3150 9264 c-13 -32 -13 -51 -1 -38 10 11 24 64 16 64 -3 0 -10 -12
-15 -26z"/>
<path d="M1641 9253 c1 -16 3 -21 6 -11 5 21 106 33 190 24 37 -5 53 -4 44 3
-8 5 -65 10 -127 10 l-114 2 1 -28z"/>
<path d="M2055 9270 c3 -5 8 -10 11 -10 2 0 4 5 4 10 0 6 -5 10 -11 10 -5 0
-7 -4 -4 -10z"/>
<path d="M3106 9211 c-4 -7 -5 -15 -2 -18 9 -9 19 4 14 18 -4 11 -6 11 -12 0z"/>
<path d="M325 9010 c3 -5 10 -10 16 -10 5 0 9 5 9 10 0 6 -7 10 -16 10 -8 0
-12 -4 -9 -10z"/>
<path d="M2410 9005 c-6 -8 -10 -19 -8 -24 1 -5 11 2 21 15 19 26 8 34 -13 9z"/>
<path d="M4204 8973 c-15 -20 -23 -33 -16 -29 13 8 56 66 49 66 -3 0 -17 -17
-33 -37z"/>
<path d="M4291 8994 c0 -11 3 -14 6 -6 3 7 2 16 -1 19 -3 4 -6 -2 -5 -13z"/>
<path d="M4353 8940 c0 -36 2 -50 4 -32 2 17 2 47 0 65 -2 17 -4 3 -4 -33z"/>
<path d="M340 8980 c0 -5 5 -10 11 -10 5 0 7 5 4 10 -3 6 -8 10 -11 10 -2 0
-4 -4 -4 -10z"/>
<path d="M1090 8940 c0 -5 5 -10 10 -10 6 0 10 5 10 10 0 6 -4 10 -10 10 -5 0
-10 -4 -10 -10z"/>
<path d="M4158 8934 c-4 -3 -28 -12 -55 -19 -26 -7 -41 -14 -33 -14 24 -1 89
19 95 29 7 11 2 13 -7 4z"/>
<path d="M2060 8900 c0 -18 4 -29 10 -25 6 3 10 15 10 25 0 10 -4 22 -10 25
-6 4 -10 -7 -10 -25z"/>
<path d="M2116 8915 c-3 -8 -1 -15 4 -15 6 0 10 7 10 15 0 8 -2 15 -4 15 -2 0
-6 -7 -10 -15z"/>
<path d="M1695 8786 c5 -138 8 -156 22 -142 15 15 -1 254 -18 271 -7 7 -8 -37
-4 -129z"/>
<path d="M1758 8913 c-2 -5 -3 -26 -2 -48 1 -22 2 -66 3 -98 1 -39 5 -56 12
-51 6 4 9 32 8 73 -2 36 -1 71 3 76 3 6 2 20 -3 33 -9 23 -15 27 -21 15z"/>
<path d="M1821 8840 c-1 -94 16 -108 21 -17 4 67 0 97 -12 97 -5 0 -9 -36 -9
-80z"/>
<path d="M1881 8860 c0 -33 5 -60 10 -60 12 0 12 107 0 115 -6 3 -10 -19 -10
-55z"/>
<path d="M2009 8888 c-3 -21 -2 -38 2 -38 13 0 16 14 9 45 l-6 30 -5 -37z"/>
<path d="M1570 8860 c-3 -78 -1 -144 6 -227 6 -68 5 -73 -13 -73 -18 0 -21 10
-27 128 -4 70 -11 147 -15 172 l-7 45 -7 -56 c-6 -52 -5 -89 8 -236 5 -47 3
-53 -14 -53 -17 0 -19 12 -27 128 -4 70 -9 130 -10 135 -1 4 -2 12 -3 18 -1 8
-6 8 -16 -1 -9 -7 -13 -20 -11 -29 2 -9 8 -69 11 -133 6 -98 5 -118 -7 -118
-11 0 -17 31 -25 138 -6 75 -13 146 -16 157 -3 11 -6 27 -7 35 -2 8 -6 -5 -10
-30 -9 -50 6 -286 20 -311 4 -8 11 -70 15 -137 6 -103 10 -122 24 -122 14 0
15 13 10 113 -4 61 -5 115 -2 120 2 4 50 7 106 7 56 0 107 4 113 8 8 5 9 30 3
82 -4 41 -11 123 -14 182 -4 60 -11 106 -15 103 -10 -6 -5 -302 5 -327 5 -14
2 -18 -13 -18 -23 0 -26 16 -38 203 -8 123 -21 178 -24 97z"/>
<path d="M1948 8871 c-2 -28 0 -41 9 -41 8 0 10 12 6 38 -8 50 -10 50 -15 3z"/>
<path d="M4653 8902 c-14 -9 -16 -259 -3 -267 5 -3 10 -46 10 -96 0 -86 1 -89
23 -89 21 0 22 4 20 62 -1 35 -3 65 -4 68 -4 9 -6 63 -9 192 -3 124 -10 147
-37 130z"/>
<path d="M1200 8863 c0 -24 -5 -43 -11 -43 -6 0 -8 -8 -5 -17 6 -20 35 -375
37 -465 2 -49 5 -58 21 -58 16 0 18 8 18 63 0 103 -38 526 -49 545 -8 13 -10
8 -11 -25z"/>
<path d="M1257 8855 c-5 -42 2 -177 26 -525 3 -32 8 -46 20 -48 14 -3 17 6 17
55 -1 84 -38 503 -48 538 -8 29 -9 28 -15 -20z"/>
<path d="M1331 8867 c0 -15 -8 -30 -16 -33 -10 -4 -12 -10 -6 -18 7 -9 22
-200 35 -466 2 -42 6 -56 19 -58 21 -4 21 -17 1 283 -14 224 -30 363 -33 292z"/>
<path d="M3480 8719 c0 -5 5 -7 10 -4 6 3 10 8 10 11 0 2 -4 4 -10 4 -5 0 -10
-5 -10 -11z"/>
<path d="M0 8665 c0 -47 0 -48 22 -40 19 7 11 85 -8 85 -10 0 -14 -13 -14 -45z"/>
<path d="M2275 8700 c-3 -5 -15 -10 -26 -10 -23 0 -34 -22 -24 -47 6 -17 8
-17 21 2 12 16 17 17 23 6 6 -9 12 -4 20 20 6 17 11 34 11 35 0 8 -19 3 -25
-6z"/>
<path d="M207 8667 c-2 -7 -2 -27 1 -44 4 -26 1 -33 -12 -33 -19 0 -19 11 -1
-170 8 -80 15 -151 15 -157 0 -7 13 -13 28 -13 l29 0 -5 73 -4 74 32 13 c18 8
35 9 38 4 4 -5 16 -14 27 -20 15 -8 22 -27 29 -73 l9 -61 50 0 50 0 -19 22
c-18 20 -18 21 -1 15 13 -5 17 -3 14 5 -2 7 -17 12 -33 11 -23 -2 -25 -1 -10
5 26 11 30 42 5 42 -10 0 -19 6 -19 13 0 20 -20 190 -26 225 -6 32 -6 32 27
30 25 -2 34 1 37 15 3 16 -2 18 -31 16 -19 -2 -42 3 -51 10 -23 19 -69 1 -81
-33 -7 -21 -6 -29 5 -36 13 -8 12 -10 -2 -10 -14 0 -18 8 -18 34 0 19 -5 38
-11 42 -21 13 -67 14 -72 1z"/>
<path d="M547 8561 c-3 -12 1 -22 9 -25 21 -8 46 5 40 21 -3 8 -6 17 -6 19 0
14 -39 0 -43 -15z"/>
<path d="M3850 8510 c-12 -8 -10 -10 10 -9 14 0 34 4 45 9 17 7 16 9 -10 9
-16 0 -37 -4 -45 -9z"/>
<path d="M526 8494 c-3 -9 -6 -27 -6 -40 0 -28 26 -33 33 -6 3 11 5 7 6 -10 0
-15 -4 -30 -10 -33 -7 -5 -5 -11 5 -18 8 -7 17 -28 19 -47 4 -33 4 -33 5 8 1
23 7 42 12 42 6 0 11 -19 11 -42 2 -41 2 -41 9 12 4 30 3 63 -2 72 -11 23 -10
58 2 58 6 0 10 -11 10 -25 0 -14 5 -25 10 -25 9 0 5 42 -7 63 -2 4 -24 7 -48
7 -30 0 -45 -5 -49 -16z"/>
<path d="M3780 8506 c0 -2 11 -6 25 -8 14 -3 25 -1 25 3 0 5 -11 9 -25 9 -14
0 -25 -2 -25 -4z"/>
<path d="M1606 8441 c-13 -14 -14 -21 -6 -26 13 -8 30 11 30 33 0 16 -4 15
-24 -7z"/>
<path d="M3854 8415 c1 -47 26 -66 26 -20 0 16 6 25 15 25 12 0 11 4 -5 20
-30 30 -38 25 -36 -25z"/>
<path d="M5644 8420 c-12 -4 -24 -16 -28 -25 -3 -9 -10 -218 -16 -463 -5 -246
-12 -542 -15 -659 l-6 -212 28 4 c15 2 56 4 91 4 l62 1 0 680 0 680 -47 -1
c-27 0 -57 -4 -69 -9z m86 -75 c0 -8 -7 -15 -15 -15 -16 0 -20 12 -8 23 11 12
23 8 23 -8z"/>
<path d="M105 8390 c3 -5 8 -10 11 -10 2 0 4 5 4 10 0 6 -5 10 -11 10 -5 0 -7
-4 -4 -10z"/>
<path d="M4986 8393 c-4 -4 -36 -6 -71 -5 -53 2 -65 0 -65 -13 0 -8 -4 -15
-10 -15 -5 0 -10 7 -10 16 0 12 -10 14 -47 12 -27 -2 -47 -7 -46 -13 1 -5 -5
-14 -13 -18 -8 -4 -14 -15 -14 -22 0 -11 -12 -15 -45 -15 -25 0 -45 -4 -45
-10 0 -5 9 -10 21 -10 11 0 26 -6 33 -12 9 -10 50 -12 152 -10 l139 3 -25 19
c-34 26 -17 25 18 0 24 -18 37 -20 84 -14 41 5 58 11 61 23 4 20 -13 74 -27
83 -14 10 -80 10 -90 1z"/>
<path d="M3900 8380 c0 -5 6 -10 14 -10 8 0 18 5 21 10 3 6 -3 10 -14 10 -12
0 -21 -4 -21 -10z"/>
<path d="M4361 8373 c-71 -4 -73 -5 -69 -28 4 -18 0 -25 -13 -27 -16 -3 -17
-6 -6 -28 12 -23 18 -25 82 -25 l70 0 5 40 c4 30 7 35 13 22 4 -10 7 -27 7
-38 0 -13 7 -19 24 -19 23 0 25 3 25 55 l0 55 -32 -2 c-18 -1 -65 -4 -106 -5z"/>
<path d="M3863 8353 c-13 -2 -23 -9 -23 -14 0 -11 29 -69 34 -69 2 0 13 16 25
35 11 19 28 35 38 35 15 0 16 2 3 10 -15 10 -37 11 -77 3z"/>
<path d="M4000 8345 c0 -8 -5 -15 -10 -15 -6 0 -9 -12 -6 -27 2 -16 5 -34 5
-40 1 -7 5 -13 11 -13 5 0 7 7 4 15 -4 8 -1 15 5 15 7 0 14 -7 17 -15 4 -9 19
-15 38 -15 l31 0 -3 55 -4 55 -44 0 c-32 0 -44 -4 -44 -15z"/>
<path d="M4615 8340 c4 -6 11 -8 16 -5 14 9 11 15 -7 15 -8 0 -12 -5 -9 -10z"/>
<path d="M4675 8340 c-3 -5 -1 -10 4 -10 6 0 11 5 11 10 0 6 -2 10 -4 10 -3 0
-8 -4 -11 -10z"/>
<path d="M5235 8320 c3 -5 10 -10 16 -10 5 0 9 5 9 10 0 6 -7 10 -16 10 -8 0
-12 -4 -9 -10z"/>
<path d="M4220 8309 c0 -5 5 -7 10 -4 6 3 10 8 10 11 0 2 -4 4 -10 4 -5 0 -10
-5 -10 -11z"/>
<path d="M4527 8314 c-4 -4 -7 -17 -7 -28 1 -19 1 -20 11 -3 11 19 8 43 -4 31z"/>
<path d="M0 8291 c0 -12 6 -21 15 -21 8 0 15 4 15 9 0 5 -7 14 -15 21 -13 10
-15 9 -15 -9z"/>
<path d="M1249 8255 c-3 -33 -6 -50 -8 -55 -2 -3 -4 -15 -5 -27 -2 -18 2 -23
20 -23 21 0 23 3 13 27 -5 14 -8 32 -5 40 3 7 1 23 -4 35 -8 22 -9 22 -11 3z"/>
<path d="M1302 8245 c-7 -15 -8 -25 -2 -25 6 0 13 0 18 0 4 0 7 11 8 25 1 32
-10 32 -24 0z"/>
<path d="M1348 8263 c15 -6 17 -93 1 -93 -7 0 -18 8 -25 18 -12 16 -13 15 -22
-8 -8 -21 -6 -26 11 -28 32 -6 85 7 91 23 3 8 -3 32 -12 54 -12 29 -23 41 -37
40 -11 0 -14 -3 -7 -6z"/>
<path d="M802 8252 c-44 -2 -70 -7 -67 -13 4 -5 11 -7 16 -4 5 4 9 -1 9 -9 0
-9 -4 -16 -10 -16 -5 0 -10 -8 -10 -17 -1 -16 -2 -17 -13 -2 -7 9 -24 17 -37
18 -14 0 -41 2 -60 4 -19 2 -43 0 -52 -4 -10 -6 -19 -5 -23 1 -3 5 -17 10 -31
10 -17 0 -24 -5 -24 -20 0 -16 -7 -20 -30 -20 -26 0 -30 -4 -30 -26 0 -16 -5
-24 -12 -21 -7 2 -12 14 -11 26 2 13 -1 20 -7 16 -6 -3 -10 -13 -10 -21 0 -8
-9 -14 -20 -14 -30 0 -24 -17 8 -22 15 -2 92 -1 172 3 80 4 198 10 263 12 65
3 121 7 123 10 11 11 -22 47 -43 47 -28 0 -30 16 -3 25 27 9 25 32 -2 36 -13
2 -56 3 -96 1z m-116 -99 c-11 -11 -17 4 -9 23 7 18 8 18 11 1 2 -10 1 -21 -2
-24z m34 17 c0 -5 -2 -10 -4 -10 -3 0 -8 5 -11 10 -3 6 -1 10 4 10 6 0 11 -4
11 -10z m40 -10 c0 -11 -4 -20 -9 -20 -5 0 -7 9 -4 20 3 11 7 20 9 20 2 0 4
-9 4 -20z"/>
<path d="M1020 8242 c0 -19 6 -22 40 -22 33 0 40 3 40 20 0 25 -25 26 -39 3
-10 -17 -12 -17 -26 1 -15 19 -15 19 -15 -2z"/>
<path d="M1113 8240 c-1 -13 4 -20 17 -20 13 0 18 7 17 20 -1 11 -8 20 -17 20
-9 0 -16 -9 -17 -20z"/>
<path d="M1176 8244 c-9 -23 -8 -24 14 -24 11 0 20 2 20 4 0 12 -13 36 -20 36
-4 0 -11 -7 -14 -16z"/>
<path d="M4784 8240 c-16 -6 -23 -20 -28 -56 -9 -72 -7 -226 3 -219 5 3 7 20
5 38 -7 41 18 79 38 59 20 -20 18 -62 -4 -62 -10 0 -18 -7 -18 -15 0 -12 11
-15 50 -14 31 1 50 7 50 14 0 6 -10 11 -22 11 -30 -1 -38 42 -12 61 10 7 24
26 30 41 11 25 12 25 13 5 2 -41 23 -73 48 -73 17 0 23 6 24 23 l0 22 16 -22
c22 -33 76 -32 91 2 6 14 16 25 22 25 25 0 6 20 -25 26 -44 8 -45 20 -2 28 30
6 34 10 34 39 0 17 2 41 4 52 5 24 -20 26 -162 14 -51 -4 -102 -4 -113 1 -12
4 -30 4 -42 0z m26 -140 c0 -11 -4 -20 -9 -20 -5 0 -7 9 -4 20 3 11 7 20 9 20
2 0 4 -9 4 -20z"/>
<path d="M218 8233 c-2 -5 -3 -26 -2 -47 1 -35 5 -41 38 -54 39 -15 53 -12 40
10 -5 7 -7 21 -6 31 3 13 -4 17 -29 17 -18 0 -29 3 -25 8 4 4 13 7 19 7 7 0
13 8 15 18 3 12 -3 17 -22 17 -14 0 -26 -3 -28 -7z"/>
<path d="M408 8233 c12 -2 30 -2 40 0 9 3 -1 5 -23 4 -22 0 -30 -2 -17 -4z"/>
<path d="M498 8233 c7 -3 16 -2 19 1 4 3 -2 6 -13 5 -11 0 -14 -3 -6 -6z"/>
<path d="M4303 8218 c-35 -5 -63 -13 -63 -18 0 -14 31 -21 65 -14 25 4 35 2
43 -11 6 -12 11 -14 16 -6 14 22 21 10 21 -38 -1 -27 -7 -56 -14 -65 -12 -14
-11 -16 6 -16 12 0 25 -11 33 -27 12 -27 13 -27 22 -8 5 11 20 28 33 38 l25
18 -6 -31 c-4 -19 -2 -30 5 -30 6 0 11 -11 11 -25 0 -16 6 -25 16 -25 12 0 14
5 9 18 -5 9 -10 31 -12 48 -4 28 -1 33 27 42 28 10 31 10 26 -6 -6 -17 25 -62
43 -62 4 0 13 12 20 26 13 29 17 29 23 -1 1 -11 -1 -20 -7 -21 -20 -2 -65 -24
-65 -31 0 -5 26 -9 59 -9 55 -1 59 1 57 22 0 13 -7 26 -13 29 -7 2 -13 13 -13
24 0 13 -9 21 -30 26 -28 6 -44 28 -17 24 6 -1 19 -1 27 0 12 1 12 4 -2 12
-22 12 -24 48 -3 55 8 4 12 10 9 15 -3 5 -9 7 -14 4 -4 -3 -10 2 -14 10 -3 8
-12 12 -20 9 -8 -3 -17 -1 -21 5 -3 6 -15 11 -26 11 -11 0 -17 -5 -14 -10 4
-6 11 -8 16 -5 5 4 9 -1 9 -9 0 -8 -5 -18 -10 -21 -15 -9 -40 14 -40 36 0 11
-4 19 -10 19 -6 0 -10 -31 -10 -72 0 -52 -3 -69 -10 -58 -6 8 -10 38 -9 65 0
28 0 55 0 60 -1 13 -100 15 -178 3z"/>
<path d="M4680 8205 c-7 -14 -9 -28 -4 -37 5 -7 9 -26 9 -43 0 -21 4 -29 14
-27 8 2 18 -3 22 -10 5 -7 8 20 8 62 -1 65 -3 76 -19 77 -9 1 -23 -9 -30 -22z"/>
<path d="M191 8204 c0 -11 3 -14 6 -6 3 7 2 16 -1 19 -3 4 -6 -2 -5 -13z"/>
<path d="M3986 8201 c-3 -4 18 -11 47 -14 28 -4 61 -8 71 -9 10 -2 21 3 24 11
3 10 -1 12 -17 8 -11 -3 -24 -1 -27 4 -7 11 -91 12 -98 0z"/>
<path d="M1014 8184 c4 -9 -2 -14 -15 -14 -11 0 -18 -4 -14 -9 3 -5 -3 -12
-12 -15 -13 -3 230 0 244 3 2 1 1 11 -1 24 -3 21 -7 22 -105 23 -83 1 -101 -1
-97 -12z"/>
<path d="M4175 8180 c3 -5 12 -10 20 -10 8 0 17 5 20 10 4 6 -5 10 -20 10 -15
0 -24 -4 -20 -10z"/>
<path d="M5185 8169 c-9 -14 -4 -18 34 -29 33 -9 45 -1 35 24 -7 18 -59 22
-69 5z"/>
<path d="M3890 8148 c0 -23 36 -46 79 -50 41 -4 49 10 23 42 -24 30 -102 36
-102 8z"/>
<path d="M4152 8128 c-18 -18 -14 -38 8 -38 30 0 34 -2 48 -19 10 -14 12 -10
10 24 -3 34 -7 40 -28 43 -14 2 -31 -3 -38 -10z"/>
<path d="M1434 8105 c-12 -9 -14 -14 -6 -15 7 0 11 -4 8 -9 -4 -5 0 -11 6 -14
10 -3 10 -7 -1 -20 -7 -9 -11 -26 -8 -37 3 -11 1 -23 -4 -26 -5 -3 -9 -11 -9
-17 0 -7 4 -6 10 3 7 12 12 12 22 2 13 -13 4 -24 -26 -35 -16 -5 4 -27 25 -27
12 0 19 7 19 20 0 27 18 25 22 -2 3 -24 27 -31 40 -13 11 14 10 95 -1 95 -4 0
-20 11 -34 24 -21 20 -24 26 -13 35 7 6 22 9 32 5 13 -4 15 -3 6 3 -7 5 -10
17 -6 26 5 14 0 17 -28 17 -19 0 -43 -7 -54 -15z"/>
<path d="M1530 8110 c0 -5 5 -10 10 -10 6 0 10 5 10 10 0 6 -4 10 -10 10 -5 0
-10 -4 -10 -10z"/>
<path d="M4240 8097 c0 -22 4 -24 45 -23 25 0 45 3 45 7 0 18 -34 39 -61 39
-24 0 -29 -4 -29 -23z"/>
<path d="M5122 8105 c3 -16 11 -20 42 -20 22 0 41 5 43 11 2 6 -10 8 -33 6
-24 -3 -40 0 -46 9 -7 11 -8 9 -6 -6z"/>
<path d="M1065 8098 c-33 -4 -69 -8 -80 -8 -18 -1 -20 -6 -17 -38 3 -20 9 -43
14 -49 8 -9 6 -13 -5 -13 -17 0 -27 21 -27 58 0 36 -13 54 -32 47 -22 -9 -30
-48 -18 -80 5 -14 10 -37 10 -51 0 -19 5 -24 25 -24 18 0 25 5 25 20 0 25 8
25 30 -1 16 -17 34 -21 124 -25 l106 -6 11 29 11 28 9 -23 c13 -34 35 -21 31
18 -2 28 0 31 13 20 8 -7 15 -20 15 -30 0 -13 10 -19 36 -22 46 -5 50 6 33 90
l-14 67 -38 3 c-20 2 -37 0 -36 -5 1 -4 0 -17 -1 -28 -2 -17 -3 -16 -9 5 -4
14 -15 26 -24 28 -15 3 -17 -5 -17 -59 0 -75 -8 -74 -12 1 l-4 55 -49 0 c-28
0 -77 -3 -110 -7z m295 -44 c0 -8 -5 -12 -10 -9 -6 4 -8 11 -5 16 9 14 15 11
15 -7z m-430 -18 c0 -8 -4 -18 -10 -21 -5 -3 -10 3 -10 14 0 12 5 21 10 21 6
0 10 -6 10 -14z"/>
<path d="M816 8093 c-2 -2 -96 -7 -208 -9 -111 -3 -209 -6 -215 -6 -7 -1 -13
-10 -13 -20 0 -11 4 -17 9 -14 4 3 11 -26 13 -65 3 -39 9 -74 14 -79 9 -8 229
3 349 18 76 9 95 5 95 -19 0 -10 7 -19 15 -19 19 0 19 4 -2 117 -13 69 -21 93
-35 96 -9 3 -19 3 -22 0z m-68 -55 c1 -35 -2 -39 -19 -35 -15 4 -19 0 -20 -21
-1 -27 -1 -27 -10 3 -5 17 -6 37 -2 45 3 8 7 20 8 25 1 6 3 12 3 15 1 3 10 6
21 7 15 1 19 -6 19 -39z m62 27 c0 -8 -4 -15 -10 -15 -5 0 -7 7 -4 15 4 8 8
15 10 15 2 0 4 -7 4 -15z m-25 -55 c3 -5 -1 -10 -10 -10 -9 0 -13 5 -10 10 3
6 8 10 10 10 2 0 7 -4 10 -10z m2 -56 c-3 -3 -12 -4 -19 -1 -8 3 -5 6 6 6 11
1 17 -2 13 -5z"/>
<path d="M4046 8021 c-4 -7 -5 -15 -2 -18 9 -9 19 4 14 18 -4 11 -6 11 -12 0z"/>
<path d="M4721 7994 c0 -11 3 -14 6 -6 3 7 2 16 -1 19 -3 4 -6 -2 -5 -13z"/>
<path d="M4205 7920 c-3 -5 -1 -10 4 -10 6 0 11 5 11 10 0 6 -2 10 -4 10 -3 0
-8 -4 -11 -10z"/>
<path d="M1392 7865 c0 -16 2 -22 5 -12 2 9 2 23 0 30 -3 6 -5 -1 -5 -18z"/>
<path d="M863 7856 c-14 -16 -7 -26 19 -26 20 0 21 1 12 24 -7 19 -15 20 -31
2z"/>
<path d="M4710 7850 c-149 -3 -246 -8 -233 -13 13 -5 27 -6 31 -3 5 3 138 6
295 7 158 0 290 5 293 10 3 5 -25 8 -63 7 -37 -1 -183 -5 -323 -8z"/>
<path d="M5148 7853 c17 -2 47 -2 65 0 17 2 3 4 -33 4 -36 0 -50 -2 -32 -4z"/>
<path d="M4212 7840 c-117 -4 -216 -10 -220 -15 -4 -4 25 -5 63 -1 39 3 141 6
228 6 98 0 157 4 157 10 0 6 -3 9 -7 8 -5 -1 -104 -4 -221 -8z"/>
<path d="M342 7827 c-8 -9 -46 -17 -104 -21 -51 -4 -127 -11 -168 -15 l-75 -8
65 -1 c36 -1 110 3 165 8 83 8 102 7 111 -5 6 -8 19 -15 28 -15 13 0 17 7 14
32 -3 35 -19 46 -36 25z"/>
<path d="M683 7833 c9 -2 25 -2 35 0 9 3 1 5 -18 5 -19 0 -27 -2 -17 -5z"/>
<path d="M553 7823 c20 -2 54 -2 75 0 20 2 3 4 -38 4 -41 0 -58 -2 -37 -4z"/>
<path d="M1300 7713 c-36 -1 -125 -7 -199 -14 -74 -6 -175 -12 -225 -14 -50
-2 -163 -9 -251 -15 -88 -6 -198 -13 -245 -15 -47 -3 -95 -7 -107 -10 -11 -3
-56 -5 -99 -6 l-78 -1 34 -18 c19 -10 37 -15 40 -10 3 4 30 10 60 14 64 7 540
41 780 56 301 18 360 23 360 32 0 4 -1 7 -2 6 -2 -1 -32 -3 -68 -5z"/>
<path d="M1448 7713 c7 -3 16 -2 19 1 4 3 -2 6 -13 5 -11 0 -14 -3 -6 -6z"/>
<path d="M1298 7183 c7 -3 16 -2 19 1 4 3 -2 6 -13 5 -11 0 -14 -3 -6 -6z"/>
<path d="M3878 7125 c-3 -14 -1 -25 3 -25 5 0 9 11 9 25 0 14 -2 25 -4 25 -2
0 -6 -11 -8 -25z"/>
<path d="M4520 7100 c0 -11 5 -20 10 -20 6 0 10 9 10 20 0 11 -4 20 -10 20 -5
0 -10 -9 -10 -20z"/>
<path d="M3840 7100 c0 -5 5 -10 11 -10 5 0 7 5 4 10 -3 6 -8 10 -11 10 -2 0
-4 -4 -4 -10z"/>
<path d="M870 7094 c-8 -2 -45 -6 -82 -9 -65 -6 -96 -25 -42 -25 14 0 23 -4
20 -9 -3 -5 2 -12 11 -16 10 -3 19 -1 21 4 2 6 11 11 20 11 13 0 14 -2 4 -9
-8 -5 24 -7 73 -5 56 1 91 7 99 15 9 11 8 11 -6 0 -12 -9 -22 -9 -35 -2 -10 5
-28 9 -38 8 -13 -1 -20 4 -20 15 0 20 -6 25 -25 22z"/>
<path d="M1095 7053 c9 -36 16 -39 64 -35 50 5 44 22 -7 23 -20 1 -29 3 -19 6
24 6 21 20 -5 27 -37 10 -41 7 -33 -21z"/>
<path d="M658 7063 c7 -3 16 -2 19 1 4 3 -2 6 -13 5 -11 0 -14 -3 -6 -6z"/>
<path d="M5110 6860 c-12 -8 -11 -10 8 -10 12 0 22 5 22 10 0 13 -11 13 -30 0z"/>
<path d="M243 6823 l-243 -3 0 -51 0 -50 423 6 c936 13 1288 24 1222 37 -22 4
-87 7 -145 6 -58 0 -150 0 -205 1 -86 3 -94 4 -57 12 23 4 48 11 54 15 6 4 39
10 72 14 45 5 18 8 -104 9 -91 2 -179 3 -197 4 -17 1 -29 -1 -26 -5 2 -5 43
-8 91 -9 105 -1 159 -17 67 -19 -124 -4 -208 2 -222 15 -11 11 -10 14 4 17 23
4 -437 5 -734 1z"/>
<path d="M5303 6703 c-6 -10 -19 -10 -52 -2 -48 11 -201 8 -201 -3 0 -5 33 -8
73 -8 39 0 113 -2 162 -4 50 -3 96 -5 103 -6 20 0 10 -168 -27 -455 -27 -201
-71 -830 -101 -1420 -12 -240 -21 -681 -12 -575 9 100 19 69 16 -50 -1 -60 1
-84 6 -65 4 17 7 107 7 200 -1 94 -3 133 -4 88 -2 -50 -8 -83 -15 -83 -6 0 -8
12 -4 33 3 17 7 79 8 137 2 100 2 103 14 65 l12 -40 1 50 c1 28 3 111 6 185 3
82 1 125 -4 110 -6 -16 -8 18 -8 100 0 84 3 115 9 95 4 -16 6 -41 3 -55 -2
-14 -1 -41 4 -60 8 -30 9 -24 10 40 1 41 5 122 10 180 5 58 15 188 21 290 7
102 16 199 21 215 5 17 6 -354 2 -860 -4 -489 -7 -964 -7 -1055 l-1 -165 71
-3 71 -3 8 451 7 450 -30 34 -29 34 3 393 c2 217 7 423 11 459 4 36 6 77 4 93
-1 16 3 27 10 27 8 0 9 4 0 13 -7 9 -9 108 -6 327 l4 313 31 32 c28 28 30 37
30 100 0 146 13 385 22 385 4 0 8 -63 8 -140 l0 -140 24 0 c14 0 28 -5 31 -10
10 -15 -24 -63 -40 -57 -8 4 -14 -7 -18 -36 -7 -51 -4 -56 28 -49 16 3 25 11
25 23 0 11 6 22 14 25 8 3 25 24 36 47 26 50 59 87 77 87 10 0 13 29 13 129
l0 129 -102 6 c-204 12 -346 12 -355 -1z m154 -75 c-2 -13 -4 -5 -4 17 -1 22
1 32 4 23 2 -10 2 -28 0 -40z m-17 -176 c-17 -126 -29 -235 -39 -330 -5 -45
-12 -86 -16 -90 -4 -4 -4 18 -1 48 3 30 10 109 16 175 6 66 16 139 21 162 5
23 9 61 9 85 0 24 4 54 8 68 l7 25 3 -28 c2 -15 -2 -67 -8 -115z m-20 83 c-5
-22 -7 -49 -4 -60 4 -16 3 -17 -5 -5 -10 14 -8 45 6 93 9 35 12 11 3 -28z
m-43 -637 c-2 -13 -4 -3 -4 22 0 25 2 35 4 23 2 -13 2 -33 0 -45z m-76 -765
c-10 -17 -10 -17 -11 2 0 11 4 31 8 45 l7 25 3 -27 c2 -15 -1 -35 -7 -45z
m-21 -378 c-6 -30 -8 -33 -9 -13 -1 25 8 62 14 56 2 -2 -1 -21 -5 -43z m-3
-137 c-2 -13 -4 -3 -4 22 0 25 2 35 4 23 2 -13 2 -33 0 -45z"/>
<path d="M4676 6689 c7 -11 101 -12 108 -1 3 5 -22 9 -54 9 -33 1 -57 -3 -54
-8z"/>
<path d="M4918 6693 c7 -3 16 -2 19 1 4 3 -2 6 -13 5 -11 0 -14 -3 -6 -6z"/>
<path d="M4353 6683 c9 -2 23 -2 30 0 6 3 -1 5 -18 5 -16 0 -22 -2 -12 -5z"/>
<path d="M4483 6683 c31 -2 83 -2 115 0 31 2 5 3 -58 3 -63 0 -89 -1 -57 -3z"/>
<path d="M3972 6673 c48 -2 129 -2 180 0 51 1 12 3 -87 3 -99 0 -141 -2 -93
-3z"/>
<path d="M5207 6663 c-4 -3 -7 -17 -7 -30 0 -18 -5 -23 -26 -23 -51 0 -66 -46
-37 -111 17 -40 43 -60 43 -33 0 8 11 32 25 54 34 55 36 178 2 143z"/>
<path d="M4376 6641 c-11 -13 -15 -27 -11 -40 7 -24 25 -28 25 -6 0 9 6 12 15
9 18 -7 19 3 2 34 -13 23 -13 23 -31 3z"/>
<path d="M4850 6646 c0 -10 28 -13 41 -5 10 6 7 9 -13 9 -16 0 -28 -2 -28 -4z"/>
<path d="M4577 6605 c-9 -19 -21 -35 -25 -35 -16 0 -32 -50 -26 -80 8 -36 24
-40 24 -6 0 26 16 36 60 36 24 0 29 -5 38 -42 6 -24 14 -63 17 -88 6 -42 47
-111 60 -99 3 3 -4 17 -15 32 -14 18 -20 41 -20 79 -1 31 -9 69 -20 93 -11 22
-19 50 -20 62 0 12 -9 27 -20 33 -11 6 -20 17 -20 25 0 28 -17 23 -33 -10z"/>
<path d="M942 6600 c0 -14 2 -19 5 -12 2 6 2 18 0 25 -3 6 -5 1 -5 -13z"/>
<path d="M1596 6611 c15 -14 54 -23 54 -13 0 11 -24 22 -48 22 -10 0 -12 -3
-6 -9z"/>
<path d="M881 6594 c0 -11 3 -14 6 -6 3 7 2 16 -1 19 -3 4 -6 -2 -5 -13z"/>
<path d="M4090 6596 c0 -8 13 -17 30 -21 33 -7 70 -48 70 -76 0 -11 7 -19 15
-19 9 0 15 9 15 23 0 13 4 27 9 33 5 5 12 19 16 32 6 20 3 22 -29 22 -19 0
-38 5 -41 10 -10 16 -85 12 -85 -4z"/>
<path d="M4826 6595 c4 -8 16 -16 28 -17 11 0 28 -1 36 -2 11 -1 14 -13 11
-51 -1 -28 -7 -54 -12 -59 -5 -6 -9 -30 -9 -55 1 -40 2 -44 14 -28 15 20 56
23 56 5 0 -7 5 -5 11 5 6 10 8 26 4 35 -4 9 -6 54 -6 100 2 88 -4 97 -50 70
-17 -10 -23 -10 -26 0 -3 6 -18 12 -34 12 -21 0 -27 -4 -23 -15z"/>
<path d="M5027 6593 c-5 -7 -5 -17 -2 -23 3 -5 1 -10 -4 -10 -6 0 -11 5 -11
10 0 6 -5 10 -12 10 -8 0 -6 -6 5 -17 20 -20 41 -6 35 23 -2 14 -6 16 -11 7z"/>
<path d="M4326 6551 c-4 -7 -5 -15 -2 -18 9 -9 19 4 14 18 -4 11 -6 11 -12 0z"/>
<path d="M4425 6530 c-10 -11 -15 -20 -11 -20 14 0 46 21 46 30 0 16 -16 11
-35 -10z"/>
<path d="M4050 6506 c0 -2 7 -7 16 -10 8 -3 12 -2 9 4 -6 10 -25 14 -25 6z"/>
<path d="M3760 6440 c0 -5 12 -10 26 -10 14 0 23 4 19 10 -3 6 -15 10 -26 10
-10 0 -19 -4 -19 -10z"/>
<path d="M556 6408 c-3 -13 -6 -33 -6 -46 0 -20 4 -22 23 -16 12 4 24 10 27
14 3 4 16 13 29 20 24 12 24 13 6 27 -11 7 -25 11 -32 9 -7 -3 -13 -1 -13 4 0
20 -28 9 -34 -12z"/>
<path d="M4308 6386 c-27 -23 -34 -36 -27 -43 15 -15 3 -33 -22 -33 -27 0 -24
-15 8 -29 20 -9 28 -10 31 -1 3 7 9 5 17 -6 16 -22 45 -11 45 17 0 18 -2 19
-15 9 -9 -7 -18 -10 -21 -8 -10 10 8 58 22 58 8 0 14 1 14 3 0 1 4 17 9 35 8
27 7 32 -7 32 -9 -1 -34 -16 -54 -34z"/>
<path d="M4532 6400 c0 -14 2 -19 5 -12 2 6 2 18 0 25 -3 6 -5 1 -5 -13z"/>
<path d="M4735 6391 c15 -29 64 -71 83 -71 19 0 -4 55 -27 66 -12 7 -28 17
-34 23 -6 6 -17 11 -24 11 -11 0 -10 -6 2 -29z"/>
<path d="M4625 6400 c3 -5 8 -10 11 -10 2 0 4 5 4 10 0 6 -5 10 -11 10 -5 0
-7 -4 -4 -10z"/>
<path d="M690 6370 c0 -5 9 -10 21 -10 11 0 17 5 14 10 -3 6 -13 10 -21 10 -8
0 -14 -4 -14 -10z"/>
<path d="M4526 6343 c-3 -3 -6 -21 -6 -40 0 -28 -5 -35 -36 -48 -20 -8 -48
-15 -62 -15 -26 0 -26 0 8 -25 24 -18 47 -25 77 -25 39 0 43 2 43 24 0 14 5
28 11 32 8 5 6 10 -5 16 -13 7 -16 18 -12 43 5 32 -4 52 -18 38z"/>
<path d="M780 6330 c-12 -8 -10 -10 8 -10 13 0 20 4 17 10 -7 12 -6 12 -25 0z"/>
<path d="M564 6294 c3 -9 6 -18 6 -21 0 -3 7 0 15 7 17 14 11 30 -12 30 -10 0
-13 -6 -9 -16z"/>
<path d="M778 6303 c7 -3 16 -2 19 1 4 3 -2 6 -13 5 -11 0 -14 -3 -6 -6z"/>
<path d="M876 6284 c-4 -9 -4 -19 -1 -22 2 -3 7 3 11 12 4 9 4 19 1 22 -2 3
-7 -3 -11 -12z"/>
<path d="M640 6276 c0 -2 7 -6 15 -10 8 -3 15 -1 15 4 0 6 -7 10 -15 10 -8 0
-15 -2 -15 -4z"/>
<path d="M821 6249 c-27 -37 -22 -47 13 -24 28 19 30 23 18 43 -6 8 -15 3 -31
-19z"/>
<path d="M4777 6258 c4 -7 8 -20 8 -28 0 -26 95 -41 95 -15 0 10 10 15 28 15
15 0 34 5 42 11 11 8 6 9 -23 5 -21 -2 -59 2 -85 9 -59 18 -76 19 -65 3z m73
-24 c0 -2 -11 -4 -25 -4 -14 0 -25 4 -25 9 0 4 11 6 25 3 14 -2 25 -6 25 -8z"/>
<path d="M610 6231 c0 -13 46 -41 80 -48 26 -5 30 -3 30 16 0 11 -4 21 -10 21
-5 0 -10 -5 -10 -11 0 -13 -39 -2 -61 17 -18 16 -29 18 -29 5z"/>
<path d="M1154 6083 c4 -89 7 -119 22 -190 5 -25 23 -30 42 -11 12 12 29 14
110 17 18 1 41 10 53 22 l21 21 24 -28 c13 -16 24 -36 24 -44 1 -10 5 -7 12 8
6 12 25 26 42 31 17 5 25 10 19 10 -7 1 -13 7 -13 15 0 8 -7 17 -16 20 -8 3
-12 11 -9 16 7 11 54 7 88 -6 30 -11 20 30 -10 43 -16 6 -111 47 -213 92 -102
44 -188 81 -192 81 -4 0 -6 -44 -4 -97z"/>
<path d="M239 6103 c4 -16 6 -33 4 -40 -5 -15 14 -26 22 -13 10 16 -6 80 -20
80 -10 0 -11 -7 -6 -27z"/>
<path d="M238 6000 c2 -16 9 -30 14 -30 5 0 6 10 3 23 -11 35 -22 40 -17 7z"/>
<path d="M321 6014 c0 -11 3 -14 6 -6 3 7 2 16 -1 19 -3 4 -6 -2 -5 -13z"/>
<path d="M5710 5996 c0 -7 11 -16 25 -18 19 -4 25 -1 25 13 0 14 -7 19 -25 19
-15 0 -25 -6 -25 -14z"/>
<path d="M4145 5980 c3 -5 8 -10 11 -10 2 0 4 5 4 10 0 6 -5 10 -11 10 -5 0
-7 -4 -4 -10z"/>
<path d="M267 5909 c4 -13 8 -18 11 -10 2 7 -1 18 -6 23 -8 8 -9 4 -5 -13z"/>
<path d="M5710 5896 c0 -13 20 -26 41 -26 5 0 9 9 9 20 0 15 -7 20 -25 20 -15
0 -25 -6 -25 -14z"/>
<path d="M382 5870 c-12 -5 -29 -7 -37 -4 -9 4 -15 0 -15 -9 0 -10 8 -14 23
-12 32 4 107 25 107 30 0 8 -54 4 -78 -5z"/>
<path d="M3930 5864 c-41 -8 -85 -13 -97 -11 -13 3 -23 0 -23 -4 0 -15 64 -14
190 5 95 14 125 8 164 -31 18 -18 26 -21 26 -11 0 8 -11 25 -25 38 -21 20 -38
25 -93 27 -37 1 -101 -5 -142 -13z"/>
<path d="M4555 5810 c3 -5 8 -10 11 -10 2 0 4 5 4 10 0 6 -5 10 -11 10 -5 0
-7 -4 -4 -10z"/>
<path d="M5578 5785 c-2 -19 0 -35 4 -35 4 0 8 9 8 19 0 11 3 26 6 35 3 9 2
16 -4 16 -5 0 -12 -16 -14 -35z"/>
<path d="M5712 5763 c3 -41 6 -48 26 -51 20 -3 22 0 22 47 0 48 -2 51 -26 51
-24 0 -25 -2 -22 -47z"/>
<path d="M4370 5764 c19 -9 43 -23 53 -31 16 -15 17 -14 17 8 0 18 -6 24 -22
26 -13 1 -36 4 -53 7 -29 6 -29 6 5 -10z"/>
<path d="M1445 5757 c-10 -8 -15 -19 -11 -25 10 -17 43 -15 50 3 3 8 13 15 23
15 15 0 16 2 3 10 -21 14 -43 12 -65 -3z"/>
<path d="M5252 5740 c0 -14 2 -19 5 -12 2 6 2 18 0 25 -3 6 -5 1 -5 -13z"/>
<path d="M1517 5724 c-4 -4 -7 -14 -7 -23 0 -11 3 -12 11 -4 6 6 10 16 7 23
-2 6 -7 8 -11 4z"/>
<path d="M1396 5653 c4 -38 12 -71 18 -75 8 -5 7 -8 -1 -8 -7 0 -13 -9 -13
-20 0 -11 -3 -20 -8 -20 -13 0 -92 -80 -92 -93 0 -8 -10 -18 -22 -24 -43 -20
-169 -52 -183 -47 -8 4 -47 -1 -87 -9 -40 -8 -86 -14 -101 -15 -16 0 -36 -7
-45 -15 -9 -8 -46 -21 -82 -28 -76 -14 -72 -12 -64 -33 8 -21 35 -20 141 5
218 51 521 109 682 129 46 6 91 14 100 19 9 4 52 14 96 21 105 16 244 39 273
46 12 2 22 11 22 20 0 14 -2 14 -15 1 -8 -9 -24 -13 -35 -10 -11 3 -27 -1 -36
-8 -13 -10 -17 -10 -24 0 -13 23 -243 5 -302 -23 -53 -25 -58 -22 -58 39 0 19
-4 36 -9 40 -5 3 -13 30 -16 60 -4 30 -10 53 -14 51 -4 -3 -31 11 -61 30 -30
18 -59 34 -63 34 -4 0 -5 -30 -1 -67z m114 -183 c-20 -13 -50 -13 -50 0 0 6
15 10 33 10 24 0 28 -3 17 -10z"/>
<path d="M4440 5703 c0 -6 5 -15 10 -18 6 -3 10 -24 10 -46 0 -34 3 -39 23
-38 12 0 16 3 10 6 -7 2 -13 17 -13 33 0 26 -39 88 -40 63z"/>
<path d="M4657 5692 c-16 -17 -25 -63 -10 -48 4 3 13 -4 20 -16 11 -21 12 -18
13 30 0 28 -2 52 -3 52 -2 0 -11 -8 -20 -18z"/>
<path d="M4550 5680 c-7 -12 -7 -20 -1 -20 5 0 12 -17 14 -37 3 -28 4 -23 5
20 2 61 -1 68 -18 37z"/>
<path d="M4718 5673 c7 -3 16 -2 19 1 4 3 -2 6 -13 5 -11 0 -14 -3 -6 -6z"/>
<path d="M4601 5644 c0 -11 3 -14 6 -6 3 7 2 16 -1 19 -3 4 -6 -2 -5 -13z"/>
<path d="M4380 5640 c-24 -8 -23 -8 8 -9 17 -1 32 4 32 9 0 11 -5 11 -40 0z"/>
<path d="M1 5609 c1 -19 5 -45 9 -59 6 -16 7 -6 3 30 -7 63 -13 80 -12 29z"/>
<path d="M4280 5620 c0 -5 5 -10 10 -10 6 0 10 5 10 10 0 6 -4 10 -10 10 -5 0
-10 -4 -10 -10z"/>
<path d="M5136 5603 c-25 -4 -28 -8 -22 -33 3 -16 1 -32 -4 -35 -6 -3 -10 -21
-10 -39 0 -31 3 -34 38 -40 20 -3 43 -6 50 -6 15 0 16 52 1 67 -6 6 -10 30 -7
52 2 24 -1 40 -7 40 -5 -1 -23 -4 -39 -6z"/>
<path d="M4637 5544 c-8 -8 1 -24 14 -24 5 0 9 7 9 15 0 15 -12 20 -23 9z"/>
<path d="M4600 5533 c0 -4 5 -15 10 -23 8 -13 10 -13 10 2 0 9 -4 20 -10 23
-5 3 -10 3 -10 -2z"/>
<path d="M4320 5520 c0 -12 17 -12 45 0 17 7 15 9 -12 9 -18 1 -33 -3 -33 -9z"/>
<path d="M5000 5519 c-25 -4 -75 -13 -111 -20 -56 -11 -72 -10 -113 3 -38 13
-53 13 -81 4 -43 -15 -75 -44 -75 -67 0 -10 -9 -23 -19 -28 -25 -14 -42 6 -34
39 6 23 6 23 -60 16 -122 -12 -125 -25 -17 -68 69 -27 79 -29 130 -19 125 24
269 51 330 61 114 19 120 21 120 39 0 35 -22 48 -70 40z"/>
<path d="M5560 5467 c0 -8 7 -21 16 -28 14 -11 15 -10 12 11 -3 26 -28 41 -28
17z"/>
<path d="M5641 5429 c-13 -39 -14 -57 -2 -43 9 9 23 74 17 74 -2 0 -9 -14 -15
-31z"/>
<path d="M835 5410 c3 -5 12 -7 20 -3 21 7 19 13 -6 13 -11 0 -18 -4 -14 -10z"/>
<path d="M5222 5390 c0 -19 2 -27 5 -17 2 9 2 25 0 35 -3 9 -5 1 -5 -18z"/>
<path d="M755 5401 c-18 -4 -29 -13 -27 -21 2 -7 -3 -17 -10 -21 -9 -6 -6 -9
9 -9 16 0 21 4 17 15 -4 8 -2 15 3 15 5 0 18 7 29 15 10 8 17 14 14 13 -3 0
-18 -3 -35 -7z"/>
<path d="M5596 5366 c5 -35 9 -40 23 -31 16 10 13 35 -3 29 -9 -3 -16 2 -19
13 -2 10 -3 5 -1 -11z"/>
<path d="M61 5374 c0 -11 3 -14 6 -6 3 7 2 16 -1 19 -3 4 -6 -2 -5 -13z"/>
<path d="M325 5330 c-18 -8 -17 -9 8 -9 15 -1 27 4 27 9 0 12 -8 12 -35 0z"/>
<path d="M606 5318 c-3 -13 -1 -27 4 -32 7 -7 10 1 10 22 0 37 -5 41 -14 10z"/>
<path d="M70 5320 c0 -5 5 -10 11 -10 5 0 7 5 4 10 -3 6 -8 10 -11 10 -2 0 -4
-4 -4 -10z"/>
<path d="M450 5223 c-63 -19 -126 -38 -140 -43 l-25 -8 25 -1 c28 -2 16 -12
-29 -26 -20 -6 -23 -4 -18 9 5 13 -1 16 -31 16 -52 0 -65 -11 -53 -43 l10 -26
128 35 c70 19 158 42 195 51 53 13 65 19 57 30 -6 7 -9 20 -5 28 3 8 4 14 3
14 -1 -1 -54 -17 -117 -36z"/>
<path d="M340 5240 c-9 -6 -10 -10 -3 -10 6 0 15 5 18 10 8 12 4 12 -15 0z"/>
<path d="M560 5061 c0 -6 5 -13 11 -17 7 -4 9 -24 6 -56 -6 -50 22 -170 43
-183 18 -11 10 43 -11 80 -23 39 -19 68 8 63 28 -5 32 62 5 69 -11 3 -23 16
-26 29 -6 23 -36 35 -36 15z"/>
<path d="M1021 5015 c-57 -14 -106 -27 -108 -29 -3 -2 9 -30 26 -61 18 -32 31
-71 31 -91 0 -31 -4 -36 -47 -55 -27 -11 -56 -25 -66 -30 -11 -6 -44 -14 -74
-19 -63 -11 -58 -8 -67 -37 -6 -18 -2 -22 23 -28 37 -8 51 -1 51 26 0 10 3 19
8 19 4 0 7 -14 7 -31 0 -31 3 -33 80 -60 44 -15 96 -28 115 -28 40 -1 69 13
51 23 -6 4 -11 2 -11 -4 0 -6 -12 -2 -26 9 -15 12 -33 21 -40 21 -8 0 -14 4
-14 8 0 5 -29 19 -65 31 -36 13 -68 27 -70 32 -7 10 60 23 75 14 23 -14 71
-24 64 -13 -9 14 73 2 119 -16 67 -28 76 -29 70 -6 -3 11 -1 20 5 20 6 0 13
-12 16 -27 6 -37 -3 237 -11 305 -6 61 1 60 -142 27z m145 -293 c-12 -11 -18
7 -10 30 l8 23 4 -23 c2 -13 1 -26 -2 -30z m-26 3 c0 -28 -3 -33 -17 -28 -11
4 -13 8 -5 11 7 2 9 8 6 13 -6 10 2 39 11 39 3 0 5 -16 5 -35z"/>
<path d="M4543 4762 c-1 -152 -2 -290 -2 -307 0 -33 10 -47 36 -51 24 -4 497
-34 529 -34 14 0 23 4 20 9 -3 5 -28 9 -55 9 -27 1 -118 8 -202 16 -139 14
-263 25 -296 26 -10 0 -13 68 -13 305 0 168 -3 305 -7 305 -5 0 -9 -125 -10
-278z"/>
<path d="M500 4990 c-8 -5 -11 -12 -7 -16 4 -4 13 -2 19 4 15 15 7 24 -12 12z"/>
<path d="M6 4855 c7 -182 10 -215 22 -260 20 -69 17 -136 -7 -182 -18 -37 -21
-59 -21 -171 l0 -129 39 -11 c21 -7 43 -18 48 -25 6 -6 13 -43 17 -82 3 -38
12 -135 21 -215 8 -80 15 -170 15 -200 0 -60 10 -85 31 -78 18 6 14 74 -22
423 -52 514 -80 717 -133 985 l-15 75 5 -130z"/>
<path d="M220 4956 c0 -2 7 -7 16 -10 8 -3 12 -2 9 4 -6 10 -25 14 -25 6z"/>
<path d="M720 4900 c0 -11 4 -20 9 -20 5 0 7 9 4 20 -3 11 -7 20 -9 20 -2 0
-4 -9 -4 -20z"/>
<path d="M363 4836 c6 -14 -10 -36 -26 -36 -5 0 -7 10 -4 21 5 19 3 21 -25 15
-17 -3 -34 -6 -39 -6 -5 0 -9 -4 -9 -9 0 -5 33 -18 73 -29 39 -11 81 -23 92
-26 15 -5 15 -4 -2 5 -13 7 -23 21 -23 31 0 19 -22 48 -35 48 -4 0 -5 -6 -2
-14z"/>
<path d="M740 4838 c0 -7 5 -20 10 -28 8 -12 10 -11 10 7 0 12 -4 25 -10 28
-5 3 -10 0 -10 -7z"/>
<path d="M4061 4801 c-17 -5 -27 -18 -37 -49 -12 -41 -11 -44 12 -59 19 -12
24 -24 24 -58 0 -59 -8 -75 -36 -75 -29 0 -31 -21 -9 -74 18 -42 42 -47 51
-11 3 13 15 27 25 30 20 7 20 7 24 108 1 46 -2 71 -12 78 -9 8 -11 26 -7 65 4
30 3 54 -2 53 -5 -1 -20 -4 -33 -8z"/>
<path d="M640 4783 c0 -5 7 -18 15 -29 12 -16 14 -16 15 -3 0 9 -7 22 -15 29
-8 7 -15 8 -15 3z"/>
<path d="M845 4780 c3 -5 8 -10 11 -10 2 0 4 5 4 10 0 6 -5 10 -11 10 -5 0 -7
-4 -4 -10z"/>
<path d="M2272 4730 c0 -19 2 -27 5 -17 2 9 2 25 0 35 -3 9 -5 1 -5 -18z"/>
<path d="M282 4702 c3 -34 6 -37 36 -40 l32 -3 -17 35 c-10 19 -26 37 -36 40
-15 4 -18 -1 -15 -32z"/>
<path d="M5172 4700 c0 -14 2 -19 5 -12 2 6 2 18 0 25 -3 6 -5 1 -5 -13z"/>
<path d="M3806 4679 c-10 -51 -8 -59 19 -59 22 0 25 4 25 39 0 34 -12 51 -35
51 -1 0 -5 -14 -9 -31z"/>
<path d="M367 4693 c-21 -21 11 -63 48 -63 15 0 25 7 28 21 4 16 -1 24 -28 35
-40 16 -40 16 -48 7z"/>
<path d="M3945 4672 c-6 -4 -16 -15 -23 -24 -11 -14 -10 -20 8 -38 26 -26 25
-26 34 22 7 36 -1 53 -19 40z"/>
<path d="M593 4617 c-39 -14 -46 -31 -15 -35 12 -2 22 -7 22 -12 0 -14 69 -30
131 -30 33 0 63 -6 75 -15 15 -11 16 -15 4 -15 -16 -1 52 -30 144 -60 69 -23
110 -26 103 -7 -2 6 -11 11 -18 9 -8 -1 -7 4 4 12 18 14 17 16 -20 34 -21 11
-76 32 -123 47 -47 15 -115 40 -151 56 -70 31 -105 34 -156 16z"/>
<path d="M5158 4519 c-1 -46 -3 -100 -4 -119 -12 -185 -16 -450 -7 -450 11 0
30 636 19 647 -3 4 -7 -32 -8 -78z"/>
<path d="M5705 4590 c3 -5 8 -10 11 -10 2 0 4 5 4 10 0 6 -5 10 -11 10 -5 0
-7 -4 -4 -10z"/>
<path d="M1663 4515 c0 -22 2 -30 4 -17 2 12 2 30 0 40 -3 9 -5 -1 -4 -23z"/>
<path d="M4153 4485 c0 -22 2 -30 4 -17 2 12 2 30 0 40 -3 9 -5 -1 -4 -23z"/>
<path d="M5696 4495 c7 -16 64 -21 64 -6 0 11 -25 21 -51 21 -12 0 -16 -5 -13
-15z"/>
<path d="M5536 4432 c-3 -20 -6 -221 -8 -447 l-3 -410 118 -3 117 -3 0 340 0
339 -32 20 c-43 27 -79 66 -111 123 -14 25 -37 53 -51 62 -24 16 -24 16 -30
-21z"/>
<path d="M1213 4413 c-4 -10 -11 -21 -16 -24 -13 -9 20 -26 85 -43 69 -18 71
-19 86 -17 20 2 4 21 -17 21 -10 0 -37 18 -59 40 -43 43 -69 50 -79 23z"/>
<path d="M845 4361 c3 -6 14 -9 25 -8 24 2 15 17 -11 17 -11 0 -18 -4 -14 -9z"/>
<path d="M349 4332 c-3 -20 4 -69 12 -82 7 -13 8 -13 9 1 0 9 7 29 15 45 8 15
13 30 11 31 -7 8 -46 11 -47 5z"/>
<path d="M945 4330 c3 -5 14 -10 23 -10 15 0 15 2 2 10 -20 13 -33 13 -25 0z"/>
<path d="M2203 4331 c-24 -4 -46 -10 -49 -14 -10 -10 13 -8 81 7 62 15 41 19
-32 7z"/>
<path d="M1386 4321 c-3 -5 4 -11 17 -14 12 -3 43 -12 70 -21 26 -8 47 -11 47
-6 0 4 -14 11 -30 15 -18 4 -27 11 -24 17 5 7 0 9 -14 6 -12 -4 -22 -2 -22 3
0 12 -37 12 -44 0z"/>
<path d="M420 4305 c0 -8 -4 -23 -9 -33 -43 -83 -46 -93 -34 -110 6 -9 17 -16
24 -14 24 6 119 -29 119 -44 0 -8 -7 -28 -15 -45 -17 -33 -13 -49 14 -49 9 0
26 -7 37 -15 10 -8 25 -15 32 -15 16 0 10 22 -24 96 -13 28 -24 57 -24 63 0 7
-6 25 -14 39 -8 15 -18 48 -21 74 -5 41 -10 48 -37 57 -41 14 -48 14 -48 -4z
m43 -100 c-4 -15 -36 -12 -41 3 -3 9 3 13 19 10 13 -1 23 -7 22 -13z"/>
<path d="M1018 4303 c7 -3 16 -2 19 1 4 3 -2 6 -13 5 -11 0 -14 -3 -6 -6z"/>
<path d="M1104 4286 c11 -9 24 -16 30 -16 12 0 7 5 -24 19 -24 11 -24 11 -6
-3z"/>
<path d="M1955 4293 c-38 -9 -34 -18 5 -15 22 2 43 8 46 13 5 9 -17 10 -51 2z"/>
<path d="M510 4285 c0 -3 11 -23 25 -45 14 -22 25 -44 25 -50 0 -13 19 -13 59
1 28 10 35 8 66 -15 19 -15 35 -23 35 -19 0 4 5 0 11 -10 16 -27 7 -30 -42
-13 -28 10 -47 12 -53 6 -14 -14 -22 -12 -41 6 -26 26 -28 10 -6 -39 12 -25
21 -52 21 -60 0 -32 30 -85 51 -90 19 -5 20 -8 9 -21 -10 -14 -10 -16 6 -16
25 0 66 104 62 157 -3 33 0 38 19 41 13 2 26 15 34 35 7 18 14 35 16 39 2 3
-35 18 -84 33 -48 14 -113 35 -144 46 -58 20 -69 22 -69 14z m207 -91 c-3 -3
-12 -4 -19 -1 -8 3 -5 6 6 6 11 1 17 -2 13 -5z m-62 -113 c3 -5 1 -12 -5 -16
-5 -3 -10 1 -10 9 0 18 6 21 15 7z"/>
<path d="M1535 4270 c3 -5 10 -10 16 -10 5 0 9 5 9 10 0 6 -7 10 -16 10 -8 0
-12 -4 -9 -10z"/>
<path d="M1672 4258 c2 -13 9 -23 16 -22 6 1 26 2 42 3 17 0 30 6 30 11 0 7
-13 8 -35 4 -28 -5 -35 -3 -35 10 0 9 -5 16 -11 16 -6 0 -9 -10 -7 -22z"/>
<path d="M277 4199 c3 -30 10 -61 14 -69 5 -9 6 10 3 45 -4 33 -10 64 -15 69
-5 5 -6 -15 -2 -45z"/>
<path d="M840 4150 c-11 -27 -11 -32 6 -45 18 -14 18 -15 -5 -12 -20 2 -30 -9
-62 -68 -21 -38 -38 -75 -39 -81 0 -7 16 -15 35 -18 19 -4 37 -12 41 -18 5 -8
0 -9 -17 -4 -57 16 -79 18 -79 8 0 -6 19 -16 43 -22 23 -7 69 -20 101 -31 87
-28 99 -26 91 14 -14 68 -37 163 -45 187 -5 14 -10 43 -12 65 -4 62 -37 76
-58 25z m37 -256 c-3 -3 -12 -4 -19 -1 -8 3 -5 6 6 6 11 1 17 -2 13 -5z"/>
<path d="M930 4149 c0 -5 4 -29 9 -52 8 -34 18 -104 35 -242 6 -42 52 -48 62
-7 4 15 16 46 27 69 10 24 16 50 13 59 -4 10 3 23 19 36 14 11 25 25 25 33 0
7 7 18 15 25 9 7 12 17 7 22 -12 12 -180 57 -186 50 -3 -3 -6 0 -6 6 0 7 -4
12 -10 12 -5 0 -10 -5 -10 -11z"/>
<path d="M5237 4090 c-9 -58 -15 -646 -8 -685 11 -55 28 -38 34 33 9 112 7
642 -3 642 -5 0 -10 12 -12 28 -3 22 -5 18 -11 -18z m10 -207 c-2 -32 -3 -8
-3 52 0 61 1 87 3 58 2 -29 2 -78 0 -110z m0 -95 c-3 -7 -5 -2 -5 12 0 14 2
19 5 13 2 -7 2 -19 0 -25z"/>
<path d="M1141 4010 c-18 -39 -34 -82 -36 -95 -1 -14 -10 -34 -19 -44 -9 -9
-16 -25 -16 -34 0 -20 30 -23 48 -5 9 9 12 8 12 -5 0 -22 26 -22 39 1 9 15 10
15 11 -5 0 -13 5 -24 10 -24 6 -1 15 -3 20 -4 6 -1 13 -3 16 -4 4 0 1 -7 -5
-15 -13 -15 4 -26 39 -26 45 0 45 32 0 185 -5 17 -14 50 -21 75 -27 96 -54 95
-98 0z m17 -121 c-2 -6 -8 -10 -13 -10 -5 0 -11 4 -13 10 -2 6 4 11 13 11 9 0
15 -5 13 -11z m52 -8 c0 -6 -4 -13 -10 -16 -5 -3 -10 1 -10 9 0 9 5 16 10 16
6 0 10 -4 10 -9z"/>
<path d="M1760 4070 c0 -6 7 -10 15 -10 8 0 15 2 15 4 0 2 -7 6 -15 10 -8 3
-15 1 -15 -4z"/>
<path d="M1256 4033 c3 -16 8 -35 11 -43 14 -40 31 -125 26 -133 -2 -4 0 -13
5 -20 5 -7 13 -26 17 -44 6 -33 23 -42 61 -35 16 3 32 27 63 95 l42 91 -39 37
c-26 24 -61 43 -107 58 -86 27 -87 27 -79 -6z m154 -124 c0 -5 -6 -9 -14 -9
-15 0 -28 24 -19 34 7 7 33 -13 33 -25z"/>
<path d="M1865 4030 c10 -11 23 -20 28 -20 6 0 1 9 -11 20 -12 11 -24 20 -28
20 -4 0 1 -9 11 -20z"/>
<path d="M1925 4020 c3 -5 8 -10 11 -10 2 0 4 5 4 10 0 6 -5 10 -11 10 -5 0
-7 -4 -4 -10z"/>
<path d="M1990 4002 c0 -10 21 -32 32 -32 16 0 8 19 -12 30 -11 6 -20 7 -20 2z"/>
<path d="M480 3988 c0 -12 17 -19 114 -45 12 -3 17 -1 14 8 -3 8 -25 16 -50
19 -25 3 -53 12 -62 19 -13 11 -16 11 -16 -1z"/>
<path d="M2140 3945 c7 -9 15 -13 17 -11 7 7 -7 26 -19 26 -6 0 -6 -6 2 -15z"/>
<path d="M1510 3919 c0 -5 5 -7 10 -4 6 3 10 8 10 11 0 2 -4 4 -10 4 -5 0 -10
-5 -10 -11z"/>
<path d="M1595 3923 c-32 -5 -48 -20 -40 -40 2 -7 -11 -35 -30 -64 -42 -61
-46 -105 -12 -119 35 -15 198 -52 204 -47 6 7 -26 136 -43 169 -8 16 -15 46
-17 68 -2 42 -1 42 -62 33z"/>
<path d="M1670 3920 c-11 -7 -10 -15 4 -44 9 -20 22 -36 28 -36 6 0 8 -12 4
-32 -4 -22 2 -54 17 -98 23 -62 26 -65 58 -68 39 -3 49 9 70 88 13 46 53 110
69 110 14 0 -16 -89 -56 -162 -7 -14 -14 -29 -14 -32 0 -3 35 -6 78 -5 52 0
71 3 57 9 -17 7 -17 9 -2 9 25 1 23 47 -3 54 -24 6 -28 47 -5 47 12 0 14 9 11
36 -3 20 -6 37 -8 38 -2 1 -45 16 -95 33 l-93 32 -15 -29 c-17 -33 -30 -38
-39 -14 -9 22 -8 24 9 24 21 0 19 16 -2 24 -10 3 -27 10 -39 15 -11 5 -27 5
-34 1z"/>
<path d="M1485 3875 c-15 -48 -15 -50 5 -26 11 13 20 27 20 32 0 15 -20 10
-25 -6z"/>
<path d="M320 3836 c0 -21 5 -26 24 -26 36 0 81 19 70 30 -5 5 -28 12 -51 16
-41 6 -43 6 -43 -20z"/>
<path d="M2019 3782 c4 -20 12 -38 19 -38 6 -1 18 -2 26 -3 8 0 24 -12 37 -26
13 -13 33 -25 44 -25 15 0 17 -2 6 -9 -9 -6 -10 -11 -2 -15 13 -9 19 5 23 60
l3 42 -48 15 c-46 15 -49 15 -44 -2 3 -11 -2 -17 -14 -18 -13 -1 -19 5 -19 17
0 11 -8 24 -18 29 -17 9 -18 7 -13 -27z"/>
<path d="M3588 3783 c7 -3 16 -2 19 1 4 3 -2 6 -13 5 -11 0 -14 -3 -6 -6z"/>
<path d="M4113 3783 c9 -2 23 -2 30 0 6 3 -1 5 -18 5 -16 0 -22 -2 -12 -5z"/>
<path d="M3678 3753 c7 -3 16 -2 19 1 4 3 -2 6 -13 5 -11 0 -14 -3 -6 -6z"/>
<path d="M3975 3750 c-8 -13 5 -13 25 0 13 8 13 10 -2 10 -9 0 -20 -4 -23 -10z"/>
<path d="M360 3720 c11 -11 25 -20 32 -20 6 0 2 9 -10 20 -12 11 -26 20 -32
20 -5 0 -1 -9 10 -20z"/>
<path d="M2034 3696 c3 -12 6 -24 6 -28 0 -5 9 -8 20 -8 14 0 18 -5 13 -16 -5
-14 -3 -14 17 -2 18 10 24 10 27 1 8 -22 21 -14 16 10 -9 33 -23 47 -49 47
-13 0 -24 4 -24 8 0 5 -7 9 -16 9 -11 0 -14 -7 -10 -21z"/>
<path d="M2227 3698 c-4 -15 -2 -18 10 -14 9 4 22 1 30 -5 18 -15 29 -4 14 15
-20 24 -49 26 -54 4z"/>
<path d="M3935 3658 c-16 -5 -50 -8 -75 -7 -67 3 -161 -3 -125 -8 17 -2 44
-11 62 -19 27 -12 36 -12 53 -2 18 11 23 10 33 -3 16 -22 50 -31 81 -23 22 5
25 10 20 33 -9 36 -15 40 -49 29z"/>
<path d="M2206 3645 c-4 -11 2 -15 21 -15 21 0 24 2 13 15 -7 8 -16 15 -20 15
-4 0 -10 -7 -14 -15z"/>
<path d="M3490 3640 l-35 -7 30 -12 c17 -7 50 -15 75 -17 25 -1 35 -1 23 2
-13 3 -23 11 -23 19 0 10 -26 29 -33 24 -1 -1 -18 -5 -37 -9z"/>
<path d="M4090 3635 c-11 -13 -8 -15 15 -15 23 0 26 2 15 15 -7 8 -14 15 -15
15 -1 0 -8 -7 -15 -15z"/>
<path d="M297 3490 c-16 -17 -34 -27 -43 -23 -8 3 -21 0 -29 -7 -8 -7 -30 -9
-57 -6 -24 3 -71 8 -106 11 l-62 4 0 -259 0 -260 105 -2 c58 -1 117 -2 133 -2
l27 -1 -4 79 c-4 96 13 97 24 1 3 -36 5 -68 3 -72 -5 -11 74 -21 172 -22 58
-1 80 2 70 9 -12 8 -11 10 8 10 13 0 22 6 22 15 0 8 4 15 9 15 33 0 56 72 26
84 -8 3 -15 12 -15 21 0 8 -4 15 -9 15 -7 0 -20 40 -34 108 -6 27 7 31 113 35
l75 3 -81 2 c-68 2 -81 5 -81 19 0 15 33 16 421 10 232 -4 543 -10 691 -13
149 -4 268 -4 265 -1 -6 6 -775 32 -1315 44 -187 4 -325 9 -306 12 l34 6 -2
83 c-2 83 -7 112 -20 112 -3 0 -19 -13 -34 -30z m-257 -104 c0 -11 -19 -15
-25 -6 -3 5 1 10 9 10 9 0 16 -2 16 -4z"/>
<path d="M5090 3340 c0 -5 -9 -10 -19 -10 -26 0 -44 -56 -39 -120 3 -45 1 -49
-17 -45 -28 6 -305 23 -470 30 -135 5 -389 10 -880 19 l-230 4 265 -13 c360
-18 348 -17 322 -22 -14 -3 -20 -9 -15 -16 5 -9 3 -9 -8 0 -8 6 -48 14 -89 17
-49 4 -66 2 -50 -3 24 -9 24 -9 -8 -10 -20 -1 -31 3 -27 9 4 6 -14 10 -47 9
-39 0 -48 -3 -33 -9 13 -6 -16 -9 -85 -11 l-105 -2 140 -7 c77 -4 352 -15 610
-24 259 -9 526 -20 595 -24 l125 -7 6 -55 c7 -70 26 -100 61 -100 15 0 29 -4
32 -8 3 -5 6 -41 7 -80 1 -49 6 -72 14 -72 7 0 13 6 12 13 0 6 1 42 1 80 2 64
3 67 27 67 25 0 25 -1 25 -85 0 -82 1 -85 23 -81 20 3 22 9 25 86 2 67 0 85
-13 92 -12 7 -13 14 -5 29 13 23 30 16 30 -11 0 -16 8 -19 67 -19 38 0 100 -3
139 -6 48 -5 74 -4 78 4 4 6 10 39 14 74 l7 62 93 9 92 8 0 34 0 34 -89 0
c-100 0 -101 1 -101 74 0 77 -37 120 -70 81 -9 -11 -35 -15 -105 -15 -88 0
-93 -1 -88 -20 4 -14 0 -20 -12 -20 -12 0 -16 6 -12 20 5 18 -1 19 -87 22 -66
2 -90 6 -88 16 1 6 -2 12 -8 12 -5 0 -10 -4 -10 -10z m230 -100 c0 -5 -4 -10
-10 -10 -5 0 -10 5 -10 10 0 6 5 10 10 10 6 0 10 -4 10 -10z m-1213 -56 c-3
-3 -12 -4 -19 -1 -8 3 -5 6 6 6 11 1 17 -2 13 -5z m-30 -20 c-3 -3 -12 -4 -19
-1 -8 3 -5 6 6 6 11 1 17 -2 13 -5z"/>
<path d="M832 3233 c37 -2 100 -2 140 0 40 1 10 3 -67 3 -77 0 -110 -1 -73 -3z"/>
<path d="M2791 1584 c0 -11 3 -14 6 -6 3 7 2 16 -1 19 -3 4 -6 -2 -5 -13z"/>
<path d="M2812 1170 c0 -19 2 -27 5 -17 2 9 2 25 0 35 -3 9 -5 1 -5 -18z"/>
<path d="M2823 965 c0 -33 2 -45 4 -27 2 18 2 45 0 60 -2 15 -4 0 -4 -33z"/>
<path d="M2833 760 c0 -25 2 -35 4 -22 2 12 2 32 0 45 -2 12 -4 2 -4 -23z"/>
<path d="M2843 585 c0 -38 2 -53 4 -32 2 20 2 52 0 70 -2 17 -4 1 -4 -38z"/>
<path d="M2853 415 c0 -38 3 -115 7 -170 6 -96 7 -97 7 -25 1 41 -3 118 -7
170 -6 89 -7 91 -7 25z"/>
<path d="M2873 55 c0 -33 2 -45 4 -27 2 18 2 45 0 60 -2 15 -4 0 -4 -33z"/>
</g>
</svg>
